<svg id="svg" version="1.1" xmlns="http://www.w3.org/2000/svg" xmlns:xlink="http://www.w3.org/1999/xlink" width="400" height="400" viewBox="0, 0, 400,400"><g id="svgg"><path id="path0" d="M0.000 200.000 L 0.000 400.000 24.958 400.000 L 49.917 400.000 50.186 394.100 C 50.334 390.855,50.637 385.230,50.860 381.600 C 51.084 377.970,51.410 366.360,51.585 355.800 C 51.935 334.718,52.336 330.918,54.643 326.829 C 56.484 323.564,57.150 321.355,57.623 316.939 C 58.120 312.303,59.178 309.053,61.259 305.772 C 61.918 304.733,63.081 302.154,63.845 300.041 C 65.608 295.160,66.684 293.551,69.377 291.763 C 71.954 290.051,73.295 288.198,74.153 285.163 C 74.897 282.531,75.923 281.111,78.050 279.769 C 78.906 279.228,79.600 278.470,79.600 278.076 C 79.600 277.683,80.122 275.871,80.759 274.049 L 81.919 270.737 80.219 270.008 C 76.208 268.289,74.449 264.652,74.161 257.480 C 73.961 252.518,73.240 247.916,72.438 246.482 C 72.182 246.025,72.341 245.647,73.011 245.120 C 74.618 243.855,75.963 238.580,75.184 236.596 C 73.068 231.207,71.801 222.708,72.192 216.532 C 72.503 211.617,72.049 210.449,68.421 206.821 L 66.075 204.475 65.861 201.538 C 65.744 199.922,65.444 195.977,65.195 192.770 C 64.573 184.768,65.469 181.112,69.093 176.871 L 70.972 174.671 73.386 177.257 C 76.144 180.212,76.813 180.666,80.396 182.020 C 82.279 182.731,83.645 183.630,85.372 185.294 C 87.422 187.269,88.061 187.645,89.976 187.997 C 91.199 188.222,93.061 188.691,94.114 189.040 C 96.001 189.665,96.047 189.659,97.353 188.663 L 98.679 187.652 97.971 185.326 C 97.581 184.047,96.973 181.411,96.620 179.469 C 96.077 176.488,95.603 175.298,93.578 171.827 C 87.661 161.683,86.430 150.505,89.235 132.400 C 89.457 130.970,89.829 128.540,90.063 127.000 C 90.709 122.735,91.051 122.071,92.847 121.587 C 94.494 121.144,94.954 120.400,93.582 120.400 C 89.191 120.400,89.019 106.892,93.231 93.000 C 95.221 86.440,95.469 86.014,97.936 84.923 C 100.620 83.736,102.649 82.213,103.301 80.896 C 103.602 80.289,105.625 78.787,108.400 77.109 C 110.930 75.581,113.074 74.122,113.165 73.869 C 113.592 72.680,119.288 68.051,122.970 65.901 C 124.523 64.994,126.356 63.700,127.044 63.026 C 130.439 59.698,132.890 57.564,135.144 55.975 C 136.929 54.716,137.964 53.609,138.850 52.014 C 140.937 48.256,145.356 44.110,148.093 43.342 C 150.597 42.639,153.600 39.962,153.600 38.433 C 153.600 37.173,154.313 37.064,156.476 37.994 C 157.591 38.474,158.875 38.769,159.331 38.650 C 159.786 38.531,160.388 38.624,160.669 38.857 C 161.336 39.410,165.303 38.193,166.755 36.990 C 167.794 36.129,172.558 33.893,176.840 32.256 C 179.462 31.254,180.280 30.648,180.608 29.464 C 181.182 27.389,182.236 25.729,183.567 24.800 L 185.000 23.800 194.800 23.839 C 200.190 23.860,205.770 23.989,207.200 24.124 C 213.164 24.689,220.205 24.863,219.600 24.430 C 219.148 24.107,219.336 24.066,220.362 24.263 C 221.404 24.463,221.651 24.406,221.412 24.020 C 221.186 23.653,221.317 23.583,221.889 23.765 C 222.324 23.903,223.201 23.743,223.839 23.410 C 224.478 23.077,225.405 22.804,225.900 22.802 C 226.395 22.801,226.800 22.620,226.800 22.400 C 226.800 22.180,227.588 22.000,228.551 22.000 C 231.053 22.000,231.625 21.149,229.917 19.968 C 226.671 17.725,223.355 14.423,221.535 11.622 L 219.570 8.600 219.842 4.300 L 220.114 -0.000 203.657 -0.000 L 187.200 0.000 187.200 2.349 C 187.200 5.743,185.667 8.829,183.323 10.150 C 183.061 10.297,180.789 10.942,178.274 11.581 C 173.156 12.883,171.317 13.726,169.875 15.433 C 168.895 16.593,165.031 18.795,163.960 18.805 C 160.439 18.837,155.005 22.078,153.469 25.061 C 152.690 26.574,150.809 27.803,147.994 28.639 C 146.853 28.978,145.235 29.612,144.399 30.048 C 143.536 30.497,141.668 30.941,140.081 31.074 L 137.284 31.309 135.994 29.554 C 134.667 27.749,131.600 21.782,131.600 21.006 C 131.600 20.051,137.309 6.604,138.223 5.406 C 138.967 4.430,139.200 3.633,139.200 2.062 L 139.200 0.000 69.600 0.000 L 0.000 0.000 0.000 200.000 M348.018 7.500 C 348.040 11.625,347.876 16.260,347.654 17.800 C 347.432 19.340,347.140 25.460,347.006 31.400 C 346.871 37.340,346.604 44.810,346.411 48.000 C 346.181 51.832,346.210 55.238,346.499 58.038 C 347.036 63.255,346.453 67.024,345.048 67.415 C 344.581 67.544,343.840 67.800,343.400 67.984 C 337.559 70.419,337.876 70.379,332.000 69.442 C 329.910 69.109,324.870 68.632,320.800 68.383 C 309.269 67.677,300.106 63.788,302.157 60.470 C 302.332 60.187,302.364 59.511,302.228 58.968 C 302.056 58.285,302.167 57.911,302.590 57.748 C 302.926 57.620,303.200 57.174,303.200 56.757 C 303.200 56.341,303.374 56.000,303.587 56.000 C 303.801 56.000,303.880 55.753,303.764 55.452 C 303.649 55.150,303.855 54.788,304.222 54.647 C 305.087 54.315,304.385 53.383,303.010 53.038 C 302.484 52.906,301.938 52.435,301.797 51.991 C 301.656 51.547,300.609 50.713,299.470 50.139 C 298.332 49.564,296.807 48.405,296.083 47.564 C 295.359 46.722,293.219 45.099,291.329 43.957 L 287.892 41.881 286.040 42.547 C 285.022 42.913,283.007 43.323,281.562 43.458 C 279.376 43.662,278.572 43.960,276.768 45.237 C 275.575 46.081,273.133 47.505,271.341 48.401 C 269.209 49.466,267.445 50.710,266.241 51.998 L 264.400 53.965 265.525 55.883 C 266.144 56.937,267.089 58.876,267.625 60.190 C 268.254 61.731,269.462 63.508,271.026 65.190 C 274.189 68.594,274.629 69.674,275.172 75.357 C 275.647 80.331,276.581 83.319,278.083 84.671 C 279.246 85.719,279.490 86.570,280.390 92.734 C 281.302 98.971,282.344 102.569,284.001 105.200 C 284.625 106.190,285.435 108.080,285.803 109.400 C 286.170 110.720,287.153 113.510,287.986 115.600 C 288.820 117.690,289.894 120.598,290.371 122.062 C 290.849 123.527,291.938 125.721,292.792 126.940 C 294.846 129.872,295.313 134.852,294.181 141.748 C 293.210 147.663,293.705 149.216,298.029 153.807 C 299.700 155.580,301.738 158.232,302.559 159.701 C 303.592 161.548,304.677 162.829,306.082 163.861 C 308.320 165.503,311.298 169.274,311.973 171.319 C 312.317 172.360,312.924 172.896,314.903 173.909 C 316.276 174.612,318.523 175.889,319.897 176.748 C 321.311 177.632,323.171 178.425,324.187 178.577 C 327.162 179.023,326.035 180.719,322.304 181.410 C 320.710 181.706,320.504 182.096,319.812 186.141 C 319.667 186.988,318.871 189.058,318.044 190.741 C 315.523 195.865,315.585 195.412,316.885 199.200 C 318.894 205.058,320.413 212.899,320.371 217.200 C 320.351 219.290,320.457 221.312,320.608 221.694 C 320.809 222.207,320.608 222.493,319.841 222.785 C 319.268 223.002,318.800 223.383,318.800 223.631 C 318.800 223.948,317.986 223.999,316.054 223.805 C 313.422 223.541,313.252 223.578,311.954 224.682 C 309.897 226.434,308.811 227.025,306.320 227.748 C 302.573 228.837,302.727 229.687,306.842 230.630 C 308.249 230.953,310.084 231.485,310.920 231.813 C 312.364 232.380,312.526 232.360,314.120 231.435 C 315.044 230.898,316.970 230.160,318.400 229.794 C 321.171 229.085,322.138 228.546,321.754 227.925 C 321.090 226.851,323.165 225.769,326.076 225.672 C 328.218 225.601,329.507 225.313,331.037 224.564 C 336.697 221.795,337.921 221.984,342.446 226.325 L 345.234 229.000 344.769 233.200 C 343.734 242.528,344.815 253.067,348.153 266.200 C 349.109 269.961,350.247 280.076,349.797 280.805 C 349.683 280.989,349.636 287.407,349.690 295.069 C 349.825 313.969,349.667 319.971,348.935 323.772 C 348.594 325.548,348.193 329.520,348.046 332.600 C 347.726 339.294,347.315 340.432,344.084 343.568 C 337.512 349.945,336.109 352.872,336.879 358.600 C 337.407 362.520,337.396 362.677,336.356 366.450 C 334.858 371.879,334.515 377.859,335.417 382.805 C 336.361 387.985,336.432 388.120,339.178 389.985 C 342.539 392.267,344.400 395.086,344.400 397.895 L 344.400 400.000 372.200 400.000 L 400.000 400.000 400.000 200.000 L 400.000 0.000 373.989 0.000 L 347.978 0.000 348.018 7.500 M135.600 103.104 L 133.800 104.200 135.600 104.412 C 137.681 104.657,138.400 104.508,138.400 103.834 C 138.400 102.232,137.442 101.982,135.600 103.104 M63.109 105.600 C 62.612 107.558,62.136 107.624,61.390 105.837 C 61.076 105.087,60.590 104.381,60.310 104.268 C 60.029 104.155,60.636 104.049,61.657 104.032 L 63.515 104.000 63.109 105.600 M119.843 110.838 C 117.528 112.658,119.534 113.700,123.154 112.558 C 123.594 112.420,123.553 112.211,122.959 111.555 C 121.640 110.097,120.978 109.945,119.843 110.838 M64.640 122.641 C 65.718 123.213,67.734 124.473,69.119 125.441 C 70.505 126.408,71.710 127.200,71.798 127.200 C 72.565 127.200,76.793 130.240,77.500 131.300 C 78.401 132.650,79.184 135.892,79.359 138.991 C 79.411 139.900,79.846 141.455,80.326 142.448 C 80.807 143.440,81.200 144.556,81.200 144.926 C 81.200 145.344,81.542 145.618,82.100 145.648 C 82.595 145.674,82.072 145.865,80.938 146.072 C 79.201 146.389,78.801 146.632,78.394 147.614 C 77.684 149.329,74.792 151.813,71.709 153.356 C 70.219 154.102,67.834 155.317,66.409 156.056 C 63.830 157.394,63.794 157.399,59.009 157.272 C 52.476 157.098,52.095 156.730,51.077 149.600 L 50.534 145.800 51.621 144.200 C 53.166 141.924,53.825 141.451,57.200 140.197 C 58.850 139.584,60.895 138.735,61.745 138.310 L 63.290 137.538 62.145 136.338 C 61.515 135.678,59.442 133.977,57.538 132.557 C 52.248 128.613,52.650 126.963,59.889 122.905 C 62.667 121.348,62.250 121.371,64.640 122.641 M339.878 126.257 C 341.027 126.838,342.517 127.783,343.189 128.357 L 344.412 129.400 343.185 131.522 C 340.449 136.255,336.096 137.026,325.551 134.643 C 321.631 133.757,321.000 133.720,316.567 134.105 C 308.999 134.764,299.838 132.687,298.392 129.984 C 297.217 127.789,308.081 125.431,316.600 126.031 C 320.200 126.285,334.356 125.764,334.767 125.363 C 335.285 124.856,338.072 125.343,339.878 126.257 M337.816 180.253 C 337.524 181.812,336.833 181.823,334.677 180.304 C 333.383 179.393,333.468 179.236,335.733 178.344 C 337.734 177.556,338.236 178.016,337.816 180.253 " stroke="none" fill="#f4f3f1" fill-rule="evenodd"></path><path id="path1" d="M215.400 101.234 C 212.980 101.415,205.150 101.642,198.000 101.738 C 189.253 101.856,183.495 102.120,180.400 102.546 C 177.870 102.895,174.573 103.290,173.074 103.425 C 170.559 103.650,170.192 103.809,168.318 105.473 C 165.592 107.894,163.530 108.703,157.817 109.593 C 149.719 110.855,146.594 111.964,143.986 114.498 C 142.031 116.398,141.214 116.852,136.986 118.387 C 130.916 120.590,130.209 120.950,127.915 123.006 C 126.879 123.935,125.079 125.058,123.915 125.502 C 122.752 125.946,120.207 126.903,118.259 127.628 C 116.312 128.353,113.988 129.475,113.096 130.122 C 111.297 131.424,108.932 132.453,105.585 133.388 C 102.056 134.374,99.769 136.687,98.849 140.200 C 98.445 141.740,97.851 143.630,97.527 144.400 C 96.977 145.709,97.002 145.940,97.923 147.953 C 98.466 149.142,99.598 153.532,100.449 157.753 C 102.538 168.113,103.551 171.360,104.746 171.532 C 105.706 171.670,107.851 170.859,115.819 167.345 C 119.164 165.870,121.549 165.092,123.619 164.801 C 128.879 164.062,133.746 163.172,135.773 162.578 C 137.853 161.968,154.548 161.735,159.446 162.247 L 161.810 162.494 161.519 166.742 C 161.331 169.487,161.057 171.048,160.743 171.152 C 158.225 171.992,154.873 177.600,155.415 180.067 C 155.781 181.734,158.930 185.728,160.577 186.616 C 161.589 187.161,162.016 187.673,162.054 188.391 C 162.084 188.946,162.148 190.578,162.196 192.019 C 162.348 196.511,163.732 197.826,169.200 198.674 C 171.092 198.968,171.887 199.750,173.309 202.716 C 174.212 204.598,175.263 205.901,177.479 207.884 C 181.575 211.550,181.830 212.001,183.412 218.394 C 184.683 223.525,186.761 228.808,187.506 228.795 C 187.668 228.792,188.183 228.207,188.652 227.495 C 189.120 226.783,190.599 224.903,191.939 223.319 C 195.408 219.214,196.981 215.033,198.004 207.200 C 198.809 201.036,200.566 196.295,203.412 192.607 C 204.155 191.645,206.461 192.663,209.513 195.300 C 210.468 196.125,211.409 196.800,211.604 196.800 C 212.722 196.800,214.848 203.150,215.808 209.358 C 216.489 213.761,218.791 218.919,220.751 220.434 C 223.442 222.515,229.277 225.630,230.033 225.390 C 232.825 224.503,232.591 218.381,229.382 208.339 C 228.043 204.150,228.031 204.042,228.628 202.032 C 229.385 199.482,234.938 193.070,236.937 192.438 C 240.463 191.323,252.761 190.723,254.377 191.587 C 254.775 191.801,255.654 192.838,256.331 193.892 L 257.561 195.810 257.190 200.605 C 256.652 207.551,256.720 212.888,257.399 217.074 C 257.727 219.095,257.885 221.075,257.750 221.474 C 257.169 223.202,255.462 227.485,254.979 228.429 C 254.558 229.253,253.751 229.668,250.927 230.512 C 245.512 232.131,244.082 232.028,242.123 229.875 C 239.318 226.792,234.973 225.904,233.927 228.200 C 233.552 229.023,233.784 229.735,235.586 233.297 L 237.680 237.439 236.750 239.419 C 235.697 241.663,233.042 244.437,231.228 245.188 C 227.234 246.843,238.112 248.931,249.800 248.754 C 256.102 248.659,262.585 252.005,261.844 254.972 C 260.636 259.809,260.291 269.641,261.296 270.627 C 262.108 271.425,267.122 274.516,268.715 275.202 C 271.888 276.566,276.938 274.468,281.791 269.769 C 283.326 268.282,285.796 266.281,287.280 265.321 C 288.970 264.227,290.455 262.870,291.253 261.687 C 291.954 260.649,293.489 258.610,294.664 257.155 C 295.839 255.701,296.800 254.236,296.800 253.901 C 296.800 252.925,294.783 247.170,293.736 245.158 C 291.694 241.237,291.171 238.364,290.829 229.200 C 290.436 218.693,290.807 216.570,293.595 213.359 C 294.667 212.123,294.674 212.079,294.908 204.140 C 295.037 199.753,295.328 195.722,295.553 195.182 C 299.012 186.912,299.495 181.518,297.189 176.905 L 295.979 174.483 294.489 175.197 C 290.759 176.985,286.943 177.102,280.800 175.615 C 272.071 173.502,269.818 173.674,264.652 176.853 C 263.546 177.533,261.751 178.355,260.662 178.678 C 259.574 179.001,257.764 179.690,256.642 180.208 C 251.416 182.619,240.481 184.403,235.933 183.585 C 230.110 182.539,229.450 182.294,227.541 180.471 L 226.081 179.077 226.835 177.319 C 227.249 176.352,228.100 174.805,228.727 173.881 C 230.775 170.857,230.568 169.288,227.915 167.719 C 226.069 166.627,222.980 162.551,223.506 161.900 C 223.728 161.625,224.036 160.636,224.190 159.702 C 224.344 158.768,224.634 157.903,224.835 157.778 C 225.036 157.654,225.200 156.834,225.200 155.956 C 225.200 154.011,225.529 153.841,233.296 151.796 C 244.477 148.851,247.891 147.815,250.600 146.547 C 255.869 144.081,268.365 143.102,272.403 144.839 C 274.578 145.775,274.465 145.509,275.237 151.498 C 275.506 153.589,275.949 155.392,276.257 155.647 C 276.555 155.895,276.801 156.301,276.803 156.549 C 276.806 157.013,278.811 158.123,279.108 157.825 C 279.200 157.734,279.513 155.080,279.805 151.929 C 280.096 148.778,280.709 144.144,281.167 141.630 C 282.482 134.416,281.861 122.534,280.038 120.000 C 279.371 119.073,271.793 115.306,270.445 115.231 C 270.139 115.214,268.339 114.456,266.445 113.547 C 262.637 111.720,259.245 111.076,250.089 110.438 C 244.107 110.022,240.749 108.649,238.615 105.747 C 236.902 103.417,232.436 102.213,221.200 101.049 C 220.430 100.970,217.820 101.053,215.400 101.234 M268.800 162.400 C 267.955 162.671,268.067 162.726,269.524 162.760 C 270.580 162.785,271.151 162.645,271.000 162.400 C 270.718 161.944,270.224 161.944,268.800 162.400 M144.236 177.163 C 142.482 178.959,142.470 179.237,144.067 181.223 C 145.588 183.116,145.709 183.125,148.958 181.590 C 153.598 179.398,153.148 177.664,147.555 176.188 L 145.673 175.692 144.236 177.163 M112.243 177.433 C 111.864 178.419,111.970 188.133,112.365 188.758 C 112.869 189.553,115.579 187.877,115.383 186.892 C 115.308 186.511,115.033 184.670,114.773 182.800 C 114.223 178.841,112.834 175.893,112.243 177.433 M152.936 197.916 C 148.828 199.999,147.280 203.145,147.909 208.135 C 148.596 213.596,147.713 218.456,145.930 219.022 C 142.141 220.225,140.656 216.211,142.222 209.000 C 142.556 207.460,142.928 205.744,143.048 205.187 C 143.442 203.353,139.803 200.679,136.998 200.741 C 131.121 200.873,127.139 202.994,126.045 206.577 C 124.362 212.088,124.757 214.735,127.798 218.331 L 128.924 219.663 134.494 219.531 C 139.458 219.414,140.120 219.477,140.583 220.110 C 142.129 222.221,153.360 223.224,155.480 221.440 C 158.245 219.113,160.417 210.654,160.266 202.799 C 160.173 198.007,156.968 195.872,152.936 197.916 M93.000 203.175 L 91.000 203.889 91.107 205.644 C 91.752 216.189,93.359 218.583,100.075 219.005 L 104.349 219.274 104.805 217.582 C 105.898 213.522,105.711 209.643,104.187 204.767 C 104.049 204.327,102.736 203.872,99.855 203.267 C 95.048 202.259,95.551 202.266,93.000 203.175 M317.000 247.858 C 315.460 249.071,313.814 250.250,313.342 250.477 C 312.869 250.705,311.846 252.199,311.059 253.812 C 309.453 257.103,308.285 258.167,304.328 259.942 C 300.603 261.614,300.483 261.988,302.399 265.949 C 304.009 269.277,304.346 269.530,306.830 269.271 C 306.956 269.258,308.262 269.208,309.731 269.160 L 312.402 269.074 313.822 266.637 C 315.111 264.425,315.931 263.161,317.809 260.494 C 318.567 259.417,323.216 257.034,326.652 255.962 C 330.186 254.860,330.611 253.400,329.344 246.700 L 329.136 245.600 324.468 245.626 L 319.800 245.652 317.000 247.858 M152.723 369.817 C 152.116 370.146,151.074 371.475,150.334 372.862 C 149.526 374.378,148.404 375.771,147.411 376.490 C 145.049 378.200,144.952 378.540,145.356 383.697 C 145.668 387.679,145.606 388.780,144.856 392.503 C 144.385 394.844,144.000 397.488,144.000 398.379 L 144.000 400.000 194.400 400.000 L 244.800 400.000 244.800 398.008 C 244.800 396.157,244.671 395.898,242.983 394.342 C 241.840 393.288,240.643 391.578,239.755 389.732 C 238.071 386.233,238.077 386.236,233.000 385.614 C 224.775 384.607,219.119 383.169,214.800 380.989 C 212.410 379.782,211.796 379.656,207.200 379.422 C 204.450 379.282,200.940 378.985,199.400 378.763 C 197.860 378.540,194.530 378.393,192.000 378.435 C 184.593 378.559,169.361 374.432,166.397 371.498 C 164.052 369.177,155.776 368.159,152.723 369.817 " stroke="none" fill="#23232f" fill-rule="evenodd"></path><path id="path2" d="M139.200 2.062 C 139.200 3.633,138.967 4.430,138.223 5.406 C 137.309 6.604,131.600 20.051,131.600 21.006 C 131.600 21.782,134.667 27.749,135.994 29.554 L 137.284 31.309 140.081 31.074 C 141.668 30.941,143.536 30.497,144.399 30.048 C 145.235 29.612,146.853 28.978,147.994 28.639 C 150.809 27.803,152.690 26.574,153.469 25.061 C 155.005 22.078,160.439 18.837,163.960 18.805 C 165.031 18.795,168.895 16.593,169.875 15.433 C 171.317 13.726,173.156 12.883,178.274 11.581 C 180.789 10.942,183.061 10.297,183.323 10.150 C 185.667 8.829,187.200 5.743,187.200 2.349 L 187.200 0.000 163.200 0.000 L 139.200 0.000 139.200 2.062 M219.997 1.700 C 219.996 2.635,219.890 4.570,219.763 6.000 C 219.408 9.983,223.384 15.452,229.917 19.968 C 231.625 21.149,231.053 22.000,228.551 22.000 C 227.588 22.000,226.800 22.180,226.800 22.400 C 226.800 22.620,226.395 22.801,225.900 22.802 C 225.405 22.804,224.478 23.077,223.839 23.410 C 223.201 23.743,222.324 23.903,221.889 23.765 C 221.317 23.583,221.186 23.653,221.412 24.020 C 221.651 24.406,221.404 24.463,220.362 24.263 C 219.336 24.066,219.148 24.107,219.600 24.430 C 220.205 24.863,213.164 24.689,207.200 24.124 C 205.770 23.989,200.190 23.860,194.800 23.839 L 185.000 23.800 183.567 24.800 C 182.236 25.729,181.182 27.389,180.608 29.464 C 180.280 30.648,179.462 31.254,176.840 32.256 C 172.558 33.893,167.794 36.129,166.755 36.990 C 165.303 38.193,161.336 39.410,160.669 38.857 C 160.388 38.624,159.786 38.531,159.331 38.650 C 158.875 38.769,157.591 38.474,156.476 37.994 C 154.313 37.064,153.600 37.173,153.600 38.433 C 153.600 39.962,150.597 42.639,148.093 43.342 C 145.356 44.110,140.937 48.256,138.850 52.014 C 137.964 53.609,136.929 54.716,135.144 55.975 C 132.890 57.564,130.439 59.698,127.044 63.026 C 126.356 63.700,124.523 64.994,122.970 65.901 C 119.288 68.051,113.592 72.680,113.165 73.869 C 113.074 74.122,110.930 75.581,108.400 77.109 C 105.625 78.787,103.602 80.289,103.301 80.896 C 102.649 82.213,100.620 83.736,97.936 84.923 C 95.469 86.014,95.221 86.440,93.231 93.000 C 89.019 106.892,89.191 120.400,93.582 120.400 C 94.954 120.400,94.494 121.144,92.847 121.587 C 91.051 122.071,90.709 122.735,90.063 127.000 C 89.829 128.540,89.457 130.970,89.235 132.400 C 86.430 150.505,87.661 161.683,93.578 171.827 C 95.603 175.298,96.077 176.488,96.620 179.469 C 96.973 181.411,97.581 184.047,97.971 185.326 L 98.679 187.652 97.353 188.663 C 96.047 189.659,96.001 189.665,94.114 189.040 C 93.061 188.691,91.199 188.222,89.976 187.997 C 88.061 187.645,87.422 187.269,85.372 185.294 C 83.645 183.630,82.279 182.731,80.396 182.020 C 76.813 180.666,76.144 180.212,73.386 177.257 L 70.972 174.671 69.093 176.871 C 65.469 181.112,64.573 184.768,65.195 192.770 C 65.444 195.977,65.744 199.922,65.861 201.538 L 66.075 204.475 68.421 206.821 C 72.049 210.449,72.503 211.617,72.192 216.532 C 71.801 222.708,73.068 231.207,75.184 236.596 C 75.963 238.580,74.618 243.855,73.011 245.120 C 72.341 245.647,72.182 246.025,72.438 246.482 C 73.240 247.916,73.961 252.518,74.161 257.480 C 74.449 264.652,76.208 268.289,80.219 270.008 L 81.919 270.737 80.759 274.049 C 80.122 275.871,79.600 277.683,79.600 278.076 C 79.600 278.470,78.906 279.228,78.050 279.769 C 75.923 281.111,74.897 282.531,74.153 285.163 C 73.295 288.198,71.954 290.051,69.377 291.763 C 66.684 293.551,65.608 295.160,63.845 300.041 C 63.081 302.154,61.918 304.733,61.259 305.772 C 59.178 309.053,58.120 312.303,57.623 316.939 C 57.150 321.355,56.484 323.564,54.643 326.829 C 52.335 330.919,51.938 334.703,51.576 356.000 C 51.394 366.670,51.071 378.190,50.858 381.600 C 50.644 385.010,50.347 390.545,50.197 393.900 L 49.924 400.000 54.762 400.000 L 59.600 400.000 59.598 398.100 C 59.592 393.535,61.884 387.690,64.977 384.379 C 68.582 380.520,71.989 376.290,74.897 372.063 C 76.160 370.227,78.273 367.616,79.593 366.262 C 90.442 355.125,90.800 354.725,90.800 353.739 C 90.800 352.485,89.462 347.197,88.173 343.359 C 87.638 341.764,87.200 339.916,87.200 339.253 C 87.200 338.590,87.020 337.936,86.800 337.800 C 86.295 337.488,86.284 335.398,86.780 333.670 C 87.021 332.830,87.019 331.977,86.775 331.335 C 86.247 329.946,87.068 327.362,88.360 326.346 C 88.919 325.906,89.837 324.850,90.400 324.000 C 90.963 323.150,91.913 322.069,92.512 321.598 C 93.266 321.005,93.600 320.372,93.600 319.536 C 93.600 318.873,94.230 317.203,95.000 315.827 C 96.641 312.892,96.851 311.403,95.565 311.811 C 94.986 311.995,94.485 311.813,93.930 311.217 C 93.489 310.744,92.936 310.421,92.700 310.500 C 92.025 310.725,90.400 308.998,90.400 308.054 C 90.400 307.464,90.150 307.200,89.592 307.200 C 88.931 307.200,88.830 307.019,89.036 306.200 C 89.226 305.444,89.130 305.200,88.643 305.200 C 87.937 305.200,87.762 304.194,88.400 303.800 C 88.620 303.664,88.800 303.149,88.800 302.656 C 88.800 302.163,88.997 301.563,89.237 301.323 C 89.697 300.863,90.013 299.041,89.993 296.952 C 89.984 295.906,90.193 295.625,91.291 295.209 C 92.011 294.937,93.140 294.468,93.800 294.168 C 94.460 293.867,96.620 293.245,98.600 292.787 C 104.678 291.378,107.615 289.042,111.280 282.700 C 112.096 281.289,112.800 280.758,112.800 281.555 C 112.800 282.147,115.686 286.150,116.675 286.929 C 117.184 287.330,117.600 287.892,117.600 288.178 C 117.600 288.465,118.327 289.487,119.216 290.449 C 123.288 294.862,123.382 301.068,119.504 309.318 L 117.850 312.837 119.254 314.240 L 120.658 315.644 124.751 314.810 L 128.844 313.976 129.984 314.888 C 130.612 315.390,131.328 316.228,131.577 316.750 C 131.825 317.273,132.633 318.443,133.372 319.350 C 134.531 320.774,134.811 321.574,135.419 325.200 C 136.513 331.724,137.570 333.240,145.424 339.552 C 149.015 342.438,154.270 347.759,154.621 348.866 C 154.749 349.270,154.985 349.600,155.146 349.600 C 155.306 349.600,156.599 350.592,158.019 351.805 C 159.438 353.018,161.050 354.124,161.600 354.263 C 162.150 354.403,164.220 355.465,166.200 356.623 C 172.612 360.373,193.791 364.685,193.314 362.142 C 193.203 361.551,195.726 361.076,197.224 361.405 C 197.860 361.545,198.340 361.871,198.290 362.130 C 198.227 362.457,199.536 362.663,202.600 362.807 C 205.020 362.921,207.360 363.215,207.800 363.460 C 208.240 363.704,209.576 364.111,210.768 364.363 C 211.961 364.615,214.301 365.476,215.968 366.277 C 219.083 367.772,229.015 368.910,230.819 367.978 C 232.293 367.217,238.184 365.953,238.323 366.368 C 238.404 366.612,238.886 366.693,239.433 366.556 C 240.020 366.409,240.400 366.488,240.400 366.757 C 240.400 367.000,240.625 367.155,240.900 367.100 C 241.175 367.045,241.375 367.315,241.344 367.700 C 241.314 368.085,241.460 368.400,241.668 368.400 C 241.877 368.400,241.936 368.580,241.800 368.800 C 241.664 369.020,241.758 369.200,242.010 369.200 C 242.261 369.200,242.389 369.425,242.293 369.700 C 242.198 369.975,242.440 370.613,242.831 371.118 C 243.324 371.753,243.628 373.125,243.820 375.576 L 244.097 379.117 246.260 381.597 C 249.642 385.475,252.777 393.298,252.793 397.900 L 252.800 400.000 275.945 400.000 L 299.090 400.000 299.327 396.700 C 299.457 394.885,299.417 392.050,299.237 390.400 C 298.827 386.620,299.554 385.059,302.037 384.390 C 303.892 383.891,312.552 386.572,314.400 388.218 C 314.950 388.708,315.940 389.382,316.600 389.716 C 320.054 391.465,322.794 395.083,322.797 397.900 L 322.800 400.000 333.600 400.000 L 344.400 400.000 344.400 397.895 C 344.400 395.086,342.539 392.267,339.178 389.985 C 336.432 388.120,336.361 387.985,335.417 382.805 C 334.515 377.859,334.858 371.879,336.356 366.450 C 337.396 362.677,337.407 362.520,336.879 358.600 C 336.109 352.872,337.512 349.945,344.084 343.568 C 347.315 340.432,347.726 339.294,348.046 332.600 C 348.193 329.520,348.594 325.548,348.935 323.772 C 349.667 319.971,349.825 313.969,349.690 295.069 C 349.636 287.407,349.683 280.989,349.797 280.805 C 350.247 280.076,349.109 269.961,348.153 266.200 C 344.815 253.067,343.734 242.528,344.769 233.200 L 345.234 229.000 342.446 226.325 C 337.921 221.984,336.697 221.795,331.037 224.564 C 329.507 225.313,328.218 225.601,326.076 225.672 C 323.165 225.769,321.090 226.851,321.754 227.925 C 322.138 228.546,321.171 229.085,318.400 229.794 C 316.970 230.160,315.044 230.898,314.120 231.435 C 312.526 232.360,312.364 232.380,310.920 231.813 C 310.084 231.485,308.249 230.953,306.842 230.630 C 302.727 229.687,302.573 228.837,306.320 227.748 C 308.811 227.025,309.897 226.434,311.954 224.682 C 313.252 223.578,313.422 223.541,316.054 223.805 C 317.986 223.999,318.800 223.948,318.800 223.631 C 318.800 223.383,319.268 223.002,319.841 222.785 C 320.608 222.493,320.809 222.207,320.608 221.694 C 320.457 221.312,320.351 219.290,320.371 217.200 C 320.413 212.899,318.894 205.058,316.885 199.200 C 315.585 195.412,315.523 195.865,318.044 190.741 C 318.871 189.058,319.667 186.988,319.812 186.141 C 320.504 182.096,320.710 181.706,322.304 181.410 C 326.035 180.719,327.162 179.023,324.187 178.577 C 323.171 178.425,321.311 177.632,319.897 176.748 C 318.523 175.889,316.276 174.612,314.903 173.909 C 312.924 172.896,312.317 172.360,311.973 171.319 C 311.298 169.274,308.320 165.503,306.082 163.861 C 304.677 162.829,303.592 161.548,302.559 159.701 C 301.738 158.232,299.700 155.580,298.029 153.807 C 293.705 149.216,293.210 147.663,294.181 141.748 C 295.313 134.852,294.846 129.872,292.792 126.940 C 291.938 125.721,290.849 123.527,290.371 122.062 C 289.894 120.598,288.820 117.690,287.986 115.600 C 287.153 113.510,286.170 110.720,285.803 109.400 C 285.435 108.080,284.625 106.190,284.001 105.200 C 282.344 102.569,281.302 98.971,280.390 92.734 C 279.490 86.570,279.246 85.719,278.083 84.671 C 276.581 83.319,275.647 80.331,275.172 75.357 C 274.629 69.674,274.189 68.594,271.026 65.190 C 269.462 63.508,268.254 61.731,267.625 60.190 C 267.089 58.876,266.144 56.937,265.525 55.883 L 264.400 53.965 266.241 51.998 C 267.445 50.710,269.209 49.466,271.341 48.401 C 273.133 47.505,275.575 46.081,276.768 45.237 C 278.572 43.960,279.376 43.662,281.562 43.458 C 283.007 43.323,285.022 42.913,286.040 42.547 L 287.892 41.881 291.329 43.957 C 293.219 45.099,295.359 46.722,296.083 47.564 C 296.807 48.405,298.332 49.564,299.470 50.139 C 300.609 50.713,301.656 51.547,301.797 51.991 C 301.938 52.435,302.484 52.906,303.010 53.038 C 304.385 53.383,305.087 54.315,304.222 54.647 C 303.855 54.788,303.649 55.150,303.764 55.452 C 303.880 55.753,303.801 56.000,303.587 56.000 C 303.374 56.000,303.200 56.341,303.200 56.757 C 303.200 57.174,302.926 57.620,302.590 57.748 C 302.167 57.911,302.056 58.285,302.228 58.968 C 302.364 59.511,302.332 60.187,302.157 60.470 C 300.106 63.788,309.269 67.677,320.800 68.383 C 324.870 68.632,329.910 69.109,332.000 69.442 C 337.876 70.379,337.559 70.419,343.400 67.984 C 343.840 67.800,344.581 67.544,345.048 67.415 C 346.453 67.024,347.036 63.255,346.499 58.038 C 346.210 55.235,346.181 51.837,346.412 48.000 C 346.605 44.810,346.884 37.250,347.032 31.200 C 347.180 25.150,347.503 18.490,347.750 16.400 C 347.998 14.310,348.146 9.765,348.080 6.300 L 347.961 -0.000 283.980 -0.000 L 220.000 0.000 219.997 1.700 M230.000 98.539 C 239.155 100.102,241.103 100.684,246.001 103.314 C 250.066 105.498,252.145 106.121,259.000 107.211 C 272.245 109.318,280.558 113.454,283.493 119.400 C 285.457 123.377,286.107 135.112,284.830 143.527 C 282.291 160.259,282.395 167.656,285.207 170.468 C 286.779 172.040,287.343 171.921,291.114 169.219 C 295.644 165.974,295.347 165.997,300.083 168.529 L 304.166 170.713 305.108 175.256 C 305.627 177.755,306.633 181.552,307.344 183.694 L 308.637 187.588 306.696 191.694 C 304.476 196.393,304.468 196.148,307.055 202.882 C 307.790 204.796,308.772 207.746,309.235 209.435 L 310.078 212.508 308.939 213.459 C 308.313 213.983,306.540 215.164,305.000 216.085 C 298.935 219.710,295.404 224.970,296.111 229.326 C 296.653 232.668,299.284 237.592,301.745 239.870 L 304.129 242.077 309.164 241.905 C 314.998 241.705,317.688 240.938,325.000 237.394 C 329.357 235.282,331.042 234.887,336.754 234.641 C 338.486 234.566,338.893 236.789,338.390 243.589 C 337.609 254.147,336.905 256.893,333.994 260.720 C 332.487 262.701,332.379 263.023,332.330 265.639 C 332.290 267.809,332.157 268.392,331.739 268.232 C 331.443 268.118,331.200 268.210,331.200 268.436 C 331.200 268.662,331.054 268.757,330.876 268.647 C 329.913 268.052,325.600 270.812,325.600 272.024 C 325.600 272.694,325.313 274.505,324.962 276.049 C 324.610 277.593,324.390 278.889,324.471 278.928 C 324.552 278.968,325.632 279.966,326.870 281.148 C 328.405 282.612,329.291 283.191,329.654 282.967 C 329.947 282.786,330.502 282.615,330.887 282.586 C 331.923 282.510,334.520 279.690,334.236 278.950 C 334.106 278.611,334.000 277.709,334.000 276.944 C 334.000 276.118,333.837 275.653,333.600 275.800 C 333.364 275.946,333.198 275.503,333.196 274.724 C 333.193 273.996,333.085 272.756,332.955 271.970 C 332.641 270.072,333.505 269.200,335.697 269.200 C 338.959 269.200,339.482 271.882,338.371 282.920 C 338.017 286.440,338.051 287.717,338.565 290.289 C 339.973 297.338,339.514 298.344,333.571 301.229 L 329.348 303.278 324.983 301.439 L 320.619 299.600 319.609 300.613 C 318.416 301.812,318.308 306.654,319.361 311.785 C 320.719 318.404,321.237 321.393,322.191 328.113 C 322.747 332.025,323.361 335.936,323.556 336.803 C 323.971 338.649,323.730 347.656,323.219 349.400 C 323.026 350.060,322.751 351.293,322.608 352.140 C 321.891 356.399,320.544 357.096,316.729 355.182 C 315.920 354.776,314.930 354.278,314.529 354.075 C 310.540 352.062,301.746 350.713,299.400 351.755 C 298.960 351.951,298.034 352.074,297.342 352.028 C 295.869 351.932,294.947 352.974,294.550 355.186 C 294.410 355.964,294.104 356.840,293.870 357.134 C 293.092 358.112,292.099 368.249,292.169 374.500 C 292.194 376.737,292.064 377.600,291.702 377.600 C 291.061 377.600,291.060 378.099,291.700 378.745 C 292.102 379.152,291.980 379.167,291.074 378.825 C 288.974 378.032,287.247 378.274,286.964 379.400 C 286.826 379.950,286.578 380.400,286.412 380.400 C 286.246 380.400,285.917 381.435,285.680 382.700 C 284.528 388.860,284.323 389.339,282.232 390.778 C 278.284 393.494,277.945 392.538,278.260 379.600 C 278.768 358.826,275.273 353.557,262.884 356.415 C 261.826 356.659,260.904 356.670,260.480 356.443 C 259.595 355.969,257.288 356.356,258.063 356.848 C 258.488 357.117,258.466 357.189,257.961 357.194 C 257.422 357.199,257.304 357.875,257.213 361.500 C 257.153 363.865,257.051 366.700,256.987 367.800 C 256.923 368.900,256.855 370.087,256.836 370.437 C 256.772 371.578,253.904 372.123,250.757 371.593 C 247.990 371.126,247.677 370.847,247.953 369.100 C 247.979 368.935,247.836 368.800,247.635 368.800 C 247.435 368.800,247.319 368.485,247.379 368.100 C 247.438 367.715,247.352 367.310,247.188 367.200 C 247.023 367.090,246.786 366.280,246.659 365.400 C 246.533 364.520,246.423 363.755,246.415 363.700 C 246.407 363.645,245.995 363.597,245.500 363.594 C 244.772 363.589,244.715 363.514,245.200 363.200 C 245.722 362.863,245.723 362.811,245.210 362.806 C 244.886 362.803,245.966 361.968,247.610 360.951 C 249.255 359.933,251.335 358.342,252.232 357.414 C 253.187 356.427,254.391 355.622,255.132 355.474 C 255.830 355.334,256.400 354.984,256.400 354.696 C 256.400 354.408,256.956 353.844,257.636 353.442 C 258.316 353.041,259.441 352.215,260.136 351.607 C 260.831 351.000,262.750 349.842,264.400 349.034 C 266.050 348.227,267.580 347.331,267.800 347.044 C 269.059 345.403,270.279 345.270,277.000 346.041 C 284.362 346.884,290.150 346.821,291.085 345.886 C 292.504 344.468,292.574 338.253,291.204 335.468 C 290.530 334.100,289.871 332.265,289.738 331.390 C 289.362 328.908,286.451 320.708,285.626 319.809 C 285.219 319.364,284.034 317.650,282.993 316.000 C 281.953 314.350,280.341 311.830,279.412 310.400 C 277.066 306.788,275.956 304.546,273.770 299.000 C 272.729 296.360,271.113 292.670,270.178 290.800 L 268.479 287.400 265.339 286.474 L 262.200 285.549 254.000 286.364 C 243.462 287.413,239.791 287.115,229.438 284.377 C 224.904 283.177,222.232 281.746,221.491 280.119 C 221.042 279.135,220.701 278.987,218.000 278.602 C 217.010 278.460,215.358 278.077,214.328 277.750 C 212.282 277.099,209.862 277.795,208.339 279.472 C 205.441 282.662,200.657 285.674,197.589 286.241 C 195.113 286.698,194.538 287.402,191.457 293.748 C 188.238 300.377,187.528 301.200,185.024 301.200 C 184.146 301.200,182.663 301.492,181.728 301.849 C 179.219 302.807,178.992 302.567,178.231 298.133 C 177.860 295.970,177.030 292.525,176.386 290.478 C 174.666 285.004,175.276 279.200,177.571 279.200 C 178.868 279.200,182.736 276.379,185.878 273.141 C 188.278 270.668,191.012 265.452,192.803 259.926 C 195.584 251.345,197.647 248.583,202.473 246.976 C 204.193 246.403,205.600 245.719,205.600 245.456 C 205.600 241.869,193.291 241.304,183.200 244.427 C 179.877 245.456,178.162 246.285,174.983 248.398 C 171.436 250.756,170.677 251.099,168.486 251.328 C 162.458 251.958,161.066 252.997,162.548 255.760 C 166.944 263.953,161.575 269.092,148.990 268.736 C 141.704 268.529,133.893 263.854,131.721 258.400 C 131.415 257.630,131.015 256.640,130.832 256.200 C 130.649 255.760,130.301 254.905,130.058 254.300 C 129.553 253.041,129.814 253.069,124.756 253.736 C 120.967 254.236,120.893 254.229,119.556 253.297 C 115.501 250.467,113.406 249.885,108.360 250.186 C 102.795 250.518,102.325 250.349,98.400 246.586 C 96.970 245.215,94.900 243.638,93.800 243.080 C 84.949 238.595,79.437 226.662,81.646 216.767 L 82.551 212.717 81.683 208.282 C 80.977 204.672,80.593 203.581,79.620 202.423 C 75.525 197.546,75.130 195.319,77.895 192.691 L 79.062 191.583 81.231 192.526 C 82.424 193.045,84.300 193.704,85.400 193.991 C 86.500 194.278,88.686 195.209,90.258 196.061 C 93.827 197.995,103.054 200.037,105.943 199.532 C 109.085 198.983,110.254 197.103,109.341 194.069 C 109.038 193.063,108.357 190.318,107.828 187.969 C 106.801 183.411,105.912 181.316,103.739 178.332 C 101.984 175.921,100.266 172.082,99.473 168.800 C 99.128 167.370,98.279 163.864,97.586 161.009 C 96.892 158.153,95.621 154.170,94.762 152.158 C 90.734 142.731,94.242 134.622,104.420 129.827 C 105.179 129.470,106.749 128.572,107.909 127.833 C 109.072 127.091,112.645 125.627,115.877 124.568 C 120.068 123.195,122.202 122.270,123.369 121.323 C 126.636 118.670,128.587 117.606,133.281 115.920 C 137.293 114.478,138.467 113.854,140.534 112.064 C 143.869 109.176,144.762 108.772,152.513 106.641 C 156.661 105.501,160.481 104.165,162.513 103.143 C 167.300 100.735,170.239 99.734,173.400 99.433 C 174.940 99.286,178.270 98.891,180.800 98.555 C 183.739 98.164,189.877 97.885,197.800 97.780 C 204.620 97.690,212.090 97.454,214.400 97.256 C 219.650 96.804,220.022 96.835,230.000 98.539 M138.400 103.834 C 138.400 104.508,137.681 104.657,135.600 104.412 L 133.800 104.200 135.600 103.104 C 137.442 101.982,138.400 102.232,138.400 103.834 M60.310 104.268 C 60.590 104.381,61.076 105.087,61.390 105.837 C 62.136 107.624,62.612 107.558,63.109 105.600 L 63.515 104.000 61.657 104.032 C 60.636 104.049,60.029 104.155,60.310 104.268 M122.959 111.555 C 123.553 112.211,123.594 112.420,123.154 112.558 C 119.534 113.700,117.528 112.658,119.843 110.838 C 120.978 109.945,121.640 110.097,122.959 111.555 M59.889 122.905 C 52.650 126.963,52.248 128.613,57.538 132.557 C 59.442 133.977,61.515 135.678,62.145 136.338 L 63.290 137.538 61.745 138.310 C 60.895 138.735,58.850 139.584,57.200 140.197 C 53.825 141.451,53.166 141.924,51.621 144.200 L 50.534 145.800 51.077 149.600 C 52.095 156.730,52.476 157.098,59.009 157.272 C 63.794 157.399,63.830 157.394,66.409 156.056 C 67.834 155.317,70.219 154.102,71.709 153.356 C 74.792 151.813,77.684 149.329,78.394 147.614 C 78.801 146.632,79.201 146.389,80.938 146.072 C 82.072 145.865,82.595 145.674,82.100 145.648 C 81.542 145.618,81.200 145.344,81.200 144.926 C 81.200 144.556,80.807 143.440,80.326 142.448 C 79.846 141.455,79.411 139.900,79.359 138.991 C 79.184 135.892,78.401 132.650,77.500 131.300 C 76.793 130.240,72.565 127.200,71.798 127.200 C 71.710 127.200,70.505 126.408,69.119 125.441 C 63.317 121.388,62.832 121.255,59.889 122.905 M334.767 125.363 C 334.356 125.764,320.200 126.285,316.600 126.031 C 308.081 125.431,297.217 127.789,298.392 129.984 C 299.838 132.687,308.999 134.764,316.567 134.105 C 321.000 133.720,321.631 133.757,325.551 134.643 C 336.096 137.026,340.449 136.255,343.185 131.522 L 344.412 129.400 343.189 128.357 C 340.631 126.174,335.722 124.429,334.767 125.363 M335.733 178.344 C 333.468 179.236,333.383 179.393,334.677 180.304 C 336.833 181.823,337.524 181.812,337.816 180.253 C 338.236 178.016,337.734 177.556,335.733 178.344 M127.751 229.279 C 126.829 230.770,127.384 237.579,128.464 238.026 C 130.066 238.690,131.504 237.773,131.234 236.260 C 131.200 236.073,131.074 234.454,130.953 232.663 C 130.831 230.851,130.527 229.275,130.267 229.109 C 129.543 228.649,128.080 228.747,127.751 229.279 M211.283 236.937 C 210.392 237.432,210.387 237.464,211.115 238.123 C 212.420 239.304,214.281 238.302,213.200 237.000 C 212.605 236.284,212.469 236.279,211.283 236.937 M151.174 242.745 C 146.905 245.489,146.773 245.733,149.097 246.596 C 150.144 246.985,151.826 247.743,152.836 248.280 C 156.723 250.349,161.977 247.368,158.800 244.896 C 158.030 244.297,156.668 243.138,155.774 242.321 L 154.147 240.834 151.174 242.745 M293.891 277.629 C 293.071 278.305,292.400 279.025,292.400 279.228 C 292.400 279.946,295.371 282.874,296.768 283.533 C 297.547 283.900,298.548 284.817,298.992 285.570 C 300.602 288.301,302.893 290.288,305.210 290.964 C 308.420 291.900,309.781 292.889,311.040 295.202 C 312.080 297.113,312.252 297.250,313.344 297.031 C 315.503 296.599,315.610 296.314,315.346 291.656 C 315.065 286.696,314.777 286.087,311.804 284.186 C 310.620 283.428,308.887 281.921,307.952 280.836 C 306.713 279.397,305.813 278.753,304.626 278.457 C 295.087 276.076,295.717 276.124,293.891 277.629 M213.847 298.514 C 216.875 300.251,218.987 303.082,218.860 305.233 C 218.697 307.998,216.305 312.400,214.966 312.400 C 214.510 312.400,214.465 312.574,214.772 313.147 C 214.992 313.558,215.058 314.009,214.918 314.149 C 213.980 315.087,214.467 321.174,215.593 322.592 C 216.230 323.393,217.134 325.198,217.601 326.604 L 218.452 329.161 217.050 331.956 C 216.278 333.493,215.431 335.471,215.167 336.352 C 214.903 337.233,213.768 339.181,212.644 340.682 C 211.520 342.182,209.813 344.584,208.852 346.020 C 206.567 349.430,205.490 350.145,200.072 351.843 L 195.544 353.262 192.668 351.896 C 186.160 348.806,185.256 345.604,189.369 340.203 C 189.873 339.541,190.423 338.564,190.591 338.030 C 191.017 336.684,194.356 333.200,195.221 333.200 C 195.965 333.200,199.200 329.816,199.200 329.038 C 199.200 326.852,197.307 325.038,193.962 324.018 C 192.503 323.574,190.867 322.758,190.302 322.193 L 189.280 321.171 191.240 317.321 C 192.318 315.204,193.200 313.228,193.200 312.929 C 193.200 312.631,193.826 312.088,194.592 311.723 C 196.004 311.050,197.581 308.876,199.897 304.408 C 201.127 302.035,203.363 300.195,205.400 299.878 C 206.060 299.776,207.770 299.325,209.200 298.876 C 212.280 297.911,212.733 297.875,213.847 298.514 M111.904 345.516 C 111.256 346.265,110.455 349.183,110.124 352.000 C 110.007 352.990,109.887 353.951,109.856 354.135 C 109.587 355.745,116.179 355.800,117.921 354.202 C 118.147 353.995,116.635 348.800,116.348 348.800 C 116.192 348.800,115.944 348.256,115.798 347.591 C 115.423 345.885,112.795 344.485,111.904 345.516 M102.784 370.280 C 100.925 372.396,100.199 374.284,98.192 382.211 C 96.993 386.947,95.886 390.303,94.805 392.486 C 93.536 395.048,93.200 396.175,93.200 397.863 L 93.200 400.000 113.600 400.000 L 134.000 400.000 134.000 397.860 C 134.000 395.791,135.317 393.116,136.783 392.211 C 137.022 392.063,137.733 390.920,138.363 389.671 L 139.509 387.400 138.254 384.910 C 134.010 376.486,132.284 374.777,126.822 373.593 C 120.191 372.155,118.414 371.617,115.580 370.190 C 112.932 368.857,112.642 368.800,108.451 368.800 L 104.083 368.800 102.784 370.280 M296.167 378.643 C 296.922 378.932,297.006 379.860,296.300 380.112 C 295.677 380.334,293.600 379.318,293.600 378.790 C 293.600 378.357,295.185 378.266,296.167 378.643 " stroke="none" fill="#9c8072" fill-rule="evenodd"></path><path id="path3" d="M208.800 97.870 C 204.227 98.197,198.116 98.347,194.029 98.233 C 189.367 98.103,185.657 98.220,182.829 98.586 C 180.503 98.886,176.980 99.251,175.000 99.396 C 170.588 99.719,168.340 100.387,164.200 102.606 C 160.990 104.327,157.814 105.405,150.000 107.425 C 145.387 108.618,144.001 109.312,141.113 111.877 C 138.831 113.904,137.455 114.624,132.502 116.383 C 128.775 117.707,126.627 118.922,123.933 121.230 C 122.927 122.091,120.537 123.166,116.333 124.649 C 112.960 125.838,109.390 127.339,108.400 127.985 C 107.410 128.630,105.293 129.787,103.695 130.556 C 98.223 133.187,95.627 136.316,93.871 142.396 C 92.783 146.165,92.862 146.666,95.394 152.111 C 95.985 153.382,97.422 158.267,98.587 162.966 C 100.829 172.008,102.271 175.649,104.582 178.098 C 106.104 179.712,107.204 182.416,108.388 187.455 C 110.012 194.365,111.356 197.602,113.514 199.800 C 117.511 203.872,117.565 211.335,113.635 216.778 L 112.641 218.156 112.166 216.978 C 111.905 216.330,111.205 213.100,110.610 209.800 C 109.232 202.158,109.118 201.918,106.596 201.351 C 103.020 200.545,95.055 198.849,92.696 198.390 C 91.273 198.113,89.906 197.532,89.121 196.871 C 88.221 196.113,86.559 195.482,83.426 194.709 L 79.001 193.618 78.004 194.614 L 77.007 195.611 77.973 197.431 C 78.504 198.432,79.445 199.513,80.065 199.834 C 81.788 200.725,82.244 201.766,83.391 207.431 L 84.450 212.662 83.439 216.631 C 81.731 223.339,84.276 233.639,88.143 235.668 C 88.615 235.915,89.613 236.650,90.363 237.301 C 91.112 237.953,92.932 239.259,94.406 240.204 C 95.880 241.149,97.967 242.946,99.043 244.198 C 102.378 248.075,103.406 248.476,108.455 247.862 C 112.559 247.364,112.785 247.378,116.241 248.359 C 119.071 249.162,120.783 249.380,124.600 249.420 C 127.240 249.448,129.813 249.500,130.318 249.535 C 131.603 249.626,133.067 251.222,133.566 253.075 C 134.090 255.021,136.216 257.544,139.155 259.711 C 140.390 260.621,141.760 261.703,142.200 262.117 C 144.333 264.123,145.491 264.367,150.159 263.796 C 155.666 263.122,155.640 263.151,154.287 259.241 C 153.689 257.511,153.190 255.669,153.178 255.148 C 153.139 253.489,147.697 249.925,144.055 249.172 C 141.058 248.553,138.269 247.101,137.204 245.605 C 136.048 243.983,134.784 243.392,131.200 242.800 C 125.976 241.937,120.800 238.805,120.800 236.507 C 120.800 236.141,120.338 234.326,119.773 232.475 L 118.746 229.109 119.599 228.201 C 123.151 224.421,138.340 225.718,139.387 229.891 C 140.641 234.886,143.897 236.257,150.200 234.442 L 154.200 233.290 156.000 234.212 C 156.990 234.719,158.790 236.021,160.000 237.106 C 162.517 239.363,162.845 239.430,173.510 239.859 L 179.220 240.089 183.110 238.271 C 185.249 237.271,187.810 236.162,188.800 235.807 C 191.053 234.997,194.271 232.681,195.102 231.270 C 195.448 230.682,196.743 229.372,197.978 228.360 C 199.447 227.156,200.671 225.683,201.512 224.104 L 202.800 221.688 202.800 212.824 C 202.800 203.694,203.208 201.087,204.517 201.859 C 207.089 203.375,207.506 203.993,207.792 206.713 C 208.337 211.908,209.551 215.274,211.404 216.731 C 212.015 217.213,212.676 218.387,213.056 219.667 C 214.354 224.047,216.096 226.188,219.236 227.265 C 221.636 228.088,222.450 228.882,223.857 231.772 C 224.614 233.328,225.878 235.261,226.666 236.068 L 228.100 237.536 226.115 238.542 C 223.491 239.871,220.697 242.023,218.000 244.793 C 216.790 246.035,214.945 247.445,213.900 247.926 C 212.855 248.406,211.180 249.181,210.178 249.646 C 206.158 251.514,203.615 253.866,204.054 255.311 C 204.270 256.020,204.535 257.035,204.643 257.567 C 205.856 263.529,208.326 265.990,214.714 267.605 C 215.877 267.899,217.040 268.647,218.331 269.931 C 220.187 271.777,220.322 271.836,223.899 272.342 C 228.209 272.952,230.400 274.302,232.011 277.338 C 233.809 280.728,247.877 283.113,258.132 281.765 C 262.489 281.193,262.643 281.200,266.585 282.169 C 276.175 284.525,287.552 283.542,287.279 280.381 C 286.898 275.966,293.292 272.595,298.415 274.509 C 299.837 275.040,302.710 275.890,304.800 276.397 C 306.890 276.905,309.520 277.722,310.645 278.213 L 312.689 279.107 313.993 278.086 C 315.268 277.089,317.599 272.855,317.600 271.536 C 317.600 270.254,320.704 266.880,322.692 266.001 C 323.741 265.536,325.410 264.474,326.400 263.640 C 327.390 262.805,328.757 261.835,329.438 261.483 C 332.905 259.692,335.429 255.818,336.032 251.361 C 337.546 240.181,337.808 237.200,337.277 237.200 C 337.036 237.200,335.976 237.370,334.920 237.577 C 333.864 237.785,332.096 238.037,330.991 238.137 C 329.886 238.238,328.319 238.711,327.510 239.188 C 322.893 241.912,306.245 244.513,303.071 243.007 C 291.673 237.598,292.464 221.715,304.549 213.335 L 305.698 212.539 304.411 206.569 C 303.703 203.286,302.877 199.520,302.575 198.200 L 302.027 195.800 303.851 191.800 C 306.005 187.078,305.929 188.037,304.581 182.600 C 301.780 171.303,301.541 170.805,297.964 168.830 L 295.728 167.596 292.371 169.843 C 287.745 172.940,287.660 172.961,285.129 171.679 C 281.661 169.922,281.510 163.373,284.461 142.800 C 285.633 134.631,284.926 122.854,283.049 119.276 C 280.260 113.960,270.029 109.167,257.685 107.396 C 251.714 106.539,249.721 105.919,245.261 103.532 C 240.040 100.737,238.127 100.161,228.817 98.585 C 219.836 97.065,219.983 97.070,208.800 97.870 M226.200 101.614 C 232.901 102.394,237.203 103.827,238.615 105.747 C 240.749 108.649,244.107 110.022,250.089 110.438 C 259.245 111.076,262.637 111.720,266.445 113.547 C 268.339 114.456,270.139 115.214,270.445 115.231 C 271.793 115.306,279.371 119.073,280.038 120.000 C 281.861 122.534,282.482 134.416,281.167 141.630 C 280.709 144.144,280.096 148.778,279.805 151.929 C 279.513 155.080,279.200 157.734,279.108 157.825 C 278.811 158.123,276.806 157.013,276.803 156.549 C 276.801 156.301,276.555 155.895,276.257 155.647 C 275.949 155.392,275.506 153.589,275.237 151.498 C 274.465 145.509,274.578 145.775,272.403 144.839 C 268.365 143.102,255.869 144.081,250.600 146.547 C 247.891 147.815,244.477 148.851,233.296 151.796 C 225.529 153.841,225.200 154.011,225.200 155.956 C 225.200 156.834,225.036 157.654,224.835 157.778 C 224.634 157.903,224.344 158.768,224.190 159.702 C 224.036 160.636,223.728 161.625,223.506 161.900 C 222.980 162.551,226.069 166.627,227.915 167.719 C 230.568 169.288,230.775 170.857,228.727 173.881 C 228.100 174.805,227.249 176.352,226.835 177.319 L 226.081 179.077 227.541 180.471 C 229.450 182.294,230.110 182.539,235.933 183.585 C 240.481 184.403,251.416 182.619,256.642 180.208 C 257.764 179.690,259.574 179.001,260.662 178.678 C 261.751 178.355,263.546 177.533,264.652 176.853 C 269.818 173.674,272.071 173.502,280.800 175.615 C 286.943 177.102,290.759 176.985,294.489 175.197 L 295.979 174.483 297.189 176.905 C 299.495 181.518,299.012 186.912,295.553 195.182 C 295.328 195.722,295.037 199.753,294.908 204.140 C 294.674 212.079,294.667 212.123,293.595 213.359 C 290.807 216.570,290.436 218.693,290.829 229.200 C 291.171 238.364,291.694 241.237,293.736 245.158 C 294.783 247.170,296.800 252.925,296.800 253.901 C 296.800 254.236,295.839 255.701,294.664 257.155 C 293.489 258.610,291.954 260.649,291.253 261.687 C 290.455 262.870,288.970 264.227,287.280 265.321 C 285.796 266.281,283.326 268.282,281.791 269.769 C 276.938 274.468,271.888 276.566,268.715 275.202 C 267.122 274.516,262.108 271.425,261.296 270.627 C 260.291 269.641,260.636 259.809,261.844 254.972 C 262.585 252.005,256.102 248.659,249.800 248.754 C 238.112 248.931,227.234 246.843,231.228 245.188 C 233.042 244.437,235.697 241.663,236.750 239.419 L 237.680 237.439 235.586 233.297 C 233.784 229.735,233.552 229.023,233.927 228.200 C 234.973 225.904,239.318 226.792,242.123 229.875 C 244.082 232.028,245.512 232.131,250.927 230.512 C 253.751 229.668,254.558 229.253,254.979 228.429 C 255.462 227.485,257.169 223.202,257.750 221.474 C 257.885 221.075,257.727 219.095,257.399 217.074 C 256.720 212.888,256.652 207.551,257.190 200.605 L 257.561 195.810 256.331 193.892 C 255.654 192.838,254.775 191.801,254.377 191.587 C 252.761 190.723,240.463 191.323,236.937 192.438 C 234.938 193.070,229.385 199.482,228.628 202.032 C 228.031 204.042,228.043 204.150,229.382 208.339 C 232.591 218.381,232.825 224.503,230.033 225.390 C 229.277 225.630,223.442 222.515,220.751 220.434 C 218.791 218.919,216.489 213.761,215.808 209.358 C 214.848 203.150,212.722 196.800,211.604 196.800 C 211.409 196.800,210.468 196.125,209.513 195.300 C 206.461 192.663,204.155 191.645,203.412 192.607 C 200.566 196.295,198.809 201.036,198.004 207.200 C 196.981 215.033,195.408 219.214,191.939 223.319 C 190.599 224.903,189.120 226.783,188.652 227.495 C 188.183 228.207,187.668 228.792,187.506 228.795 C 186.761 228.808,184.683 223.525,183.412 218.394 C 181.830 212.001,181.575 211.550,177.479 207.884 C 175.263 205.901,174.212 204.598,173.309 202.716 C 171.887 199.750,171.092 198.968,169.200 198.674 C 163.732 197.826,162.348 196.511,162.196 192.019 C 162.148 190.578,162.084 188.946,162.054 188.391 C 162.016 187.673,161.589 187.161,160.577 186.616 C 158.930 185.728,155.781 181.734,155.415 180.067 C 154.873 177.600,158.225 171.992,160.743 171.152 C 161.057 171.048,161.331 169.487,161.519 166.742 L 161.810 162.494 159.446 162.247 C 154.548 161.735,137.853 161.968,135.773 162.578 C 133.746 163.172,128.879 164.062,123.619 164.801 C 121.549 165.092,119.164 165.870,115.819 167.345 C 107.851 170.859,105.706 171.670,104.746 171.532 C 103.551 171.360,102.538 168.113,100.449 157.753 C 99.598 153.532,98.466 149.142,97.923 147.953 C 97.002 145.940,96.977 145.709,97.527 144.400 C 97.851 143.630,98.445 141.740,98.849 140.200 C 99.769 136.687,102.056 134.374,105.585 133.388 C 108.932 132.453,111.297 131.424,113.096 130.122 C 113.988 129.475,116.312 128.353,118.259 127.628 C 120.207 126.903,122.752 125.946,123.915 125.502 C 125.079 125.058,126.879 123.935,127.915 123.006 C 130.209 120.950,130.916 120.590,136.986 118.387 C 141.214 116.852,142.031 116.398,143.986 114.498 C 146.594 111.964,149.719 110.855,157.817 109.593 C 163.530 108.703,165.592 107.894,168.318 105.473 C 170.192 103.809,170.559 103.650,173.074 103.425 C 174.573 103.290,177.870 102.895,180.400 102.546 C 183.495 102.120,189.253 101.856,198.000 101.738 C 205.150 101.642,212.980 101.415,215.400 101.234 C 217.820 101.053,220.430 100.970,221.200 101.049 C 221.970 101.129,224.220 101.383,226.200 101.614 M271.000 162.400 C 271.151 162.645,270.580 162.785,269.524 162.760 C 268.067 162.726,267.955 162.671,268.800 162.400 C 270.224 161.944,270.718 161.944,271.000 162.400 M150.223 177.105 C 153.148 178.671,152.843 179.755,148.958 181.590 C 145.709 183.125,145.588 183.116,144.067 181.223 C 142.470 179.237,142.482 178.959,144.236 177.163 L 145.673 175.692 147.555 176.188 C 148.590 176.461,149.791 176.874,150.223 177.105 M113.518 178.100 C 113.955 178.826,114.510 180.902,114.773 182.800 C 115.033 184.670,115.308 186.511,115.383 186.892 C 115.579 187.877,112.869 189.553,112.365 188.758 C 111.718 187.736,111.942 176.800,112.610 176.800 C 112.679 176.800,113.087 177.385,113.518 178.100 M159.354 198.553 C 161.190 200.387,160.161 212.611,157.708 218.117 C 155.963 222.033,155.124 222.477,149.842 222.284 C 145.059 222.109,141.421 221.255,140.583 220.110 C 140.120 219.477,139.458 219.414,134.494 219.531 L 128.924 219.663 127.798 218.331 C 124.757 214.735,124.362 212.088,126.045 206.577 C 127.139 202.994,131.121 200.873,136.998 200.741 C 139.803 200.679,143.442 203.353,143.048 205.187 C 142.928 205.744,142.556 207.460,142.222 209.000 C 140.656 216.211,142.141 220.225,145.930 219.022 C 147.713 218.456,148.596 213.596,147.909 208.135 C 147.280 203.145,148.828 199.999,152.936 197.916 C 154.572 197.086,158.251 197.452,159.354 198.553 M99.855 203.267 C 102.736 203.872,104.049 204.327,104.187 204.767 C 105.711 209.643,105.898 213.522,104.805 217.582 L 104.349 219.274 100.075 219.005 C 93.359 218.583,91.752 216.189,91.107 205.644 L 91.000 203.889 93.000 203.175 C 95.551 202.266,95.048 202.259,99.855 203.267 M239.445 206.119 C 240.350 207.264,241.653 209.393,242.342 210.850 C 243.280 212.837,243.894 213.625,244.793 213.997 C 246.081 214.530,247.064 215.884,248.358 218.902 L 249.171 220.798 247.561 222.392 L 245.950 223.986 243.675 222.848 C 242.424 222.222,240.722 221.490,239.893 221.222 C 237.683 220.506,235.734 214.913,236.262 210.800 C 237.235 203.210,237.193 203.270,239.445 206.119 M174.010 220.099 C 175.530 221.049,174.775 224.234,172.383 226.959 C 170.786 228.777,170.628 228.590,170.022 224.158 C 169.702 221.821,169.700 220.336,170.016 218.766 C 170.717 215.289,170.744 215.272,172.029 217.520 C 172.683 218.667,173.575 219.827,174.010 220.099 M329.344 246.700 C 330.611 253.400,330.186 254.860,326.652 255.962 C 323.216 257.034,318.567 259.417,317.809 260.494 C 315.931 263.161,315.111 264.425,313.822 266.637 L 312.402 269.074 309.731 269.160 C 308.262 269.208,306.956 269.258,306.830 269.271 C 304.346 269.530,304.009 269.277,302.399 265.949 C 300.483 261.988,300.603 261.614,304.328 259.942 C 308.285 258.167,309.453 257.103,311.059 253.812 C 311.846 252.199,312.869 250.705,313.342 250.477 C 313.814 250.250,315.460 249.071,317.000 247.858 L 319.800 245.652 324.468 245.626 L 329.136 245.600 329.344 246.700 M240.188 258.700 C 241.400 259.965,242.686 261.306,243.044 261.680 C 244.462 263.156,242.251 266.333,239.162 267.259 C 237.518 267.751,233.200 267.076,233.200 266.326 C 233.200 266.136,232.745 265.807,232.190 265.596 C 231.634 265.385,231.060 264.894,230.915 264.506 C 230.769 264.118,230.386 263.602,230.064 263.361 C 229.311 262.796,229.713 262.159,231.029 261.828 C 232.732 261.401,234.922 259.804,236.200 258.058 C 237.713 255.992,237.570 255.969,240.188 258.700 M293.800 291.200 C 293.360 291.389,292.156 291.556,291.124 291.572 C 290.092 291.587,289.123 291.801,288.971 292.047 C 287.196 294.920,288.935 303.002,292.035 306.284 C 293.238 307.558,294.602 309.094,295.066 309.697 C 295.530 310.300,296.840 311.419,297.976 312.184 C 299.113 312.949,301.015 314.405,302.204 315.421 L 304.365 317.267 307.239 316.821 C 312.369 316.025,313.132 314.931,313.172 308.317 L 313.200 303.634 311.496 302.635 C 309.286 301.340,307.473 299.446,306.292 297.200 C 305.290 295.293,305.640 295.477,299.706 293.742 C 298.387 293.356,297.249 292.698,296.632 291.965 C 295.611 290.752,295.139 290.624,293.800 291.200 M119.859 354.862 C 118.030 355.908,112.785 357.520,110.600 357.709 C 102.401 358.416,103.334 364.866,112.000 367.388 C 112.550 367.548,114.636 368.659,116.636 369.856 C 119.816 371.759,120.845 372.148,124.850 372.961 C 132.139 374.441,134.035 376.130,138.343 384.981 L 139.502 387.362 138.783 389.039 C 138.388 389.961,137.150 391.851,136.032 393.238 C 134.162 395.559,134.000 395.929,134.000 397.880 L 134.000 400.000 139.000 400.000 L 144.000 400.000 144.000 398.379 C 144.000 397.488,144.385 394.844,144.856 392.503 C 145.606 388.780,145.668 387.679,145.356 383.697 C 144.952 378.540,145.049 378.200,147.411 376.490 C 148.405 375.771,149.527 374.378,150.336 372.859 C 152.103 369.545,152.862 369.200,158.400 369.200 C 163.161 369.200,164.450 369.570,166.397 371.498 C 169.361 374.432,184.593 378.559,192.000 378.435 C 194.530 378.393,197.860 378.540,199.400 378.763 C 200.940 378.985,204.450 379.282,207.200 379.422 C 211.796 379.656,212.410 379.782,214.800 380.989 C 219.119 383.169,224.775 384.607,233.000 385.614 C 238.077 386.236,238.071 386.233,239.755 389.732 C 240.643 391.578,241.840 393.288,242.983 394.342 C 244.671 395.898,244.800 396.157,244.800 398.008 L 244.800 400.000 248.600 400.000 L 252.400 400.000 252.400 397.649 C 252.400 392.157,249.506 385.512,245.148 381.000 C 238.078 373.679,238.812 374.057,233.014 374.750 C 228.586 375.279,221.989 374.909,217.000 373.851 C 215.460 373.525,212.310 373.056,210.000 372.809 C 207.690 372.562,204.720 372.198,203.400 372.000 C 202.080 371.802,197.850 371.350,194.000 370.997 C 183.952 370.075,179.447 369.336,177.280 368.257 C 170.917 365.086,162.368 363.304,151.200 362.819 C 144.515 362.529,142.888 362.349,142.000 361.800 C 141.782 361.665,141.287 361.480,140.902 361.389 C 137.081 360.484,129.214 357.737,127.708 356.783 C 124.972 355.047,121.164 354.116,119.859 354.862 M85.100 394.297 C 83.260 395.729,83.200 395.842,83.200 397.888 L 83.200 400.000 85.600 400.000 L 88.000 400.000 88.000 397.650 C 88.000 392.543,87.740 392.242,85.100 394.297 " stroke="none" fill="#695654" fill-rule="evenodd"></path><path id="path4" d="M219.105 97.083 C 219.602 97.179,220.322 97.175,220.705 97.075 C 221.087 96.975,220.680 96.896,219.800 96.901 C 218.920 96.905,218.607 96.987,219.105 97.083 M212.291 97.489 C 213.001 97.577,214.261 97.579,215.091 97.492 C 215.921 97.405,215.340 97.333,213.800 97.331 C 212.260 97.329,211.581 97.400,212.291 97.489 M187.505 97.883 C 188.002 97.979,188.722 97.975,189.105 97.875 C 189.487 97.775,189.080 97.696,188.200 97.701 C 187.320 97.705,187.007 97.787,187.505 97.883 M207.305 97.887 C 207.914 97.979,208.814 97.977,209.305 97.882 C 209.797 97.787,209.300 97.711,208.200 97.714 C 207.100 97.717,206.697 97.795,207.305 97.887 M184.100 98.276 C 184.485 98.376,185.115 98.376,185.500 98.276 C 185.885 98.175,185.570 98.093,184.800 98.093 C 184.030 98.093,183.715 98.175,184.100 98.276 M194.100 98.297 C 195.805 98.372,198.595 98.372,200.300 98.297 C 202.005 98.222,200.610 98.161,197.200 98.161 C 193.790 98.161,192.395 98.222,194.100 98.297 M238.600 100.546 C 240.140 101.047,243.126 102.389,245.236 103.528 C 249.287 105.716,253.301 106.954,257.600 107.341 C 259.872 107.546,259.712 107.481,256.328 106.828 C 251.163 105.831,249.994 105.432,246.000 103.300 C 242.631 101.503,237.644 99.583,236.430 99.618 C 236.083 99.628,237.060 100.046,238.600 100.546 M162.000 103.400 C 161.010 103.930,160.342 104.372,160.516 104.382 C 160.941 104.406,164.000 102.834,164.000 102.592 C 164.000 102.327,164.017 102.320,162.000 103.400 M261.200 107.878 C 270.583 109.461,280.658 114.717,283.049 119.276 C 284.926 122.854,285.633 134.631,284.461 142.800 C 281.510 163.373,281.661 169.922,285.129 171.679 C 287.660 172.961,287.745 172.940,292.371 169.843 L 295.728 167.596 297.964 168.830 C 301.541 170.805,301.780 171.303,304.581 182.600 C 305.929 188.037,306.005 187.078,303.851 191.800 L 302.027 195.800 302.575 198.200 C 302.877 199.520,303.703 203.286,304.411 206.569 L 305.698 212.539 304.549 213.335 C 292.464 221.715,291.673 237.598,303.071 243.007 C 306.245 244.513,322.893 241.912,327.510 239.188 C 328.319 238.711,329.886 238.238,330.991 238.137 C 332.096 238.037,333.864 237.785,334.920 237.577 C 335.976 237.370,337.036 237.200,337.277 237.200 C 337.808 237.200,337.546 240.181,336.032 251.361 C 335.429 255.818,332.905 259.692,329.438 261.483 C 328.757 261.835,327.390 262.805,326.400 263.640 C 325.410 264.474,323.741 265.536,322.692 266.001 C 320.704 266.880,317.600 270.254,317.600 271.536 C 317.599 272.855,315.268 277.089,313.993 278.086 L 312.689 279.107 310.645 278.213 C 309.520 277.722,306.890 276.905,304.800 276.397 C 302.710 275.890,299.837 275.040,298.415 274.509 C 293.292 272.595,286.898 275.966,287.279 280.381 C 287.552 283.542,276.175 284.525,266.585 282.169 C 262.643 281.200,262.489 281.193,258.132 281.765 C 247.877 283.113,233.809 280.728,232.011 277.338 C 230.400 274.302,228.209 272.952,223.899 272.342 C 220.322 271.836,220.187 271.777,218.331 269.931 C 217.040 268.647,215.877 267.899,214.714 267.605 C 208.326 265.990,205.856 263.529,204.643 257.567 C 204.535 257.035,204.270 256.020,204.054 255.311 C 203.615 253.866,206.158 251.514,210.178 249.646 C 211.180 249.181,212.855 248.406,213.900 247.926 C 214.945 247.445,216.790 246.035,218.000 244.793 C 220.697 242.023,223.491 239.871,226.115 238.542 L 228.100 237.536 226.666 236.068 C 225.878 235.261,224.614 233.328,223.857 231.772 C 222.450 228.882,221.636 228.088,219.236 227.265 C 216.096 226.188,214.354 224.047,213.056 219.667 C 212.676 218.387,212.015 217.213,211.404 216.731 C 209.551 215.274,208.337 211.908,207.792 206.713 C 207.506 203.993,207.089 203.375,204.517 201.859 C 203.208 201.087,202.800 203.694,202.800 212.824 L 202.800 221.688 201.512 224.104 C 200.671 225.683,199.447 227.156,197.978 228.360 C 196.743 229.372,195.448 230.682,195.102 231.270 C 194.271 232.681,191.053 234.997,188.800 235.807 C 187.810 236.162,185.249 237.271,183.110 238.271 L 179.220 240.089 173.510 239.859 C 162.845 239.430,162.517 239.363,160.000 237.106 C 158.790 236.021,156.990 234.719,156.000 234.212 L 154.200 233.290 150.200 234.442 C 143.897 236.257,140.641 234.886,139.387 229.891 C 138.340 225.718,123.151 224.421,119.599 228.201 L 118.746 229.109 119.773 232.475 C 120.338 234.326,120.800 236.141,120.800 236.507 C 120.800 238.805,125.976 241.937,131.200 242.800 C 134.784 243.392,136.048 243.983,137.204 245.605 C 138.269 247.101,141.058 248.553,144.055 249.172 C 147.697 249.925,153.139 253.489,153.178 255.148 C 153.190 255.669,153.689 257.511,154.287 259.241 C 155.640 263.151,155.666 263.122,150.159 263.796 C 145.491 264.367,144.333 264.123,142.200 262.117 C 141.760 261.703,140.390 260.621,139.155 259.711 C 136.216 257.544,134.090 255.021,133.566 253.075 C 133.067 251.222,131.603 249.626,130.318 249.535 C 129.813 249.500,127.240 249.448,124.600 249.420 C 120.783 249.380,119.071 249.162,116.241 248.359 C 112.785 247.378,112.559 247.364,108.455 247.862 C 103.406 248.476,102.378 248.075,99.043 244.198 C 97.967 242.946,95.880 241.149,94.406 240.204 C 92.932 239.259,91.112 237.953,90.363 237.301 C 89.613 236.650,88.615 235.915,88.143 235.668 C 84.276 233.639,81.731 223.339,83.439 216.631 L 84.450 212.662 83.391 207.431 C 82.244 201.766,81.788 200.725,80.065 199.834 C 79.445 199.513,78.504 198.432,77.973 197.431 L 77.007 195.611 78.004 194.614 L 79.001 193.618 83.426 194.709 C 86.559 195.482,88.221 196.113,89.121 196.871 C 89.906 197.532,91.273 198.113,92.696 198.390 C 95.055 198.849,103.020 200.545,106.596 201.351 C 109.118 201.918,109.232 202.158,110.610 209.800 C 111.205 213.100,111.905 216.330,112.166 216.978 L 112.641 218.156 113.635 216.778 C 117.565 211.335,117.511 203.872,113.514 199.800 C 111.356 197.602,110.012 194.365,108.388 187.455 C 107.204 182.416,106.104 179.712,104.582 178.098 C 102.273 175.651,100.829 172.007,98.595 163.000 C 97.406 158.202,95.876 153.118,95.088 151.345 C 94.320 149.615,93.493 147.660,93.250 147.000 L 92.809 145.800 93.043 147.200 C 93.171 147.970,93.962 150.224,94.801 152.209 C 95.639 154.193,96.892 158.153,97.586 161.009 C 98.279 163.864,99.128 167.370,99.473 168.800 C 100.266 172.082,101.984 175.921,103.739 178.332 C 105.912 181.316,106.801 183.411,107.828 187.969 C 108.357 190.318,109.038 193.063,109.341 194.069 C 110.254 197.103,109.085 198.983,105.943 199.532 C 103.054 200.037,93.827 197.995,90.258 196.061 C 88.686 195.209,86.500 194.278,85.400 193.991 C 84.300 193.704,82.424 193.045,81.231 192.526 L 79.062 191.583 77.895 192.691 C 75.130 195.319,75.525 197.546,79.620 202.423 C 80.593 203.581,80.977 204.672,81.683 208.282 L 82.551 212.717 81.646 216.767 C 79.437 226.662,84.949 238.595,93.800 243.080 C 94.900 243.638,96.970 245.215,98.400 246.586 C 102.325 250.349,102.795 250.518,108.360 250.186 C 113.406 249.885,115.501 250.467,119.556 253.297 C 120.893 254.229,120.967 254.236,124.756 253.736 C 129.814 253.069,129.553 253.041,130.058 254.300 C 130.301 254.905,130.649 255.760,130.832 256.200 C 131.015 256.640,131.415 257.630,131.721 258.400 C 133.893 263.854,141.704 268.529,148.990 268.736 C 161.575 269.092,166.944 263.953,162.548 255.760 C 161.066 252.997,162.458 251.958,168.486 251.328 C 170.677 251.099,171.436 250.756,174.983 248.398 C 184.732 241.916,205.600 239.911,205.600 245.456 C 205.600 245.719,204.193 246.403,202.473 246.976 C 197.647 248.583,195.584 251.345,192.803 259.926 C 191.012 265.452,188.278 270.668,185.878 273.141 C 182.736 276.379,178.868 279.200,177.571 279.200 C 175.276 279.200,174.666 285.004,176.386 290.478 C 177.030 292.525,177.860 295.970,178.231 298.133 C 178.992 302.567,179.219 302.807,181.728 301.849 C 182.663 301.492,184.146 301.200,185.024 301.200 C 187.528 301.200,188.238 300.377,191.457 293.748 C 194.538 287.402,195.113 286.698,197.589 286.241 C 200.657 285.674,205.441 282.662,208.339 279.472 C 209.862 277.795,212.282 277.099,214.328 277.750 C 215.358 278.077,217.010 278.460,218.000 278.602 C 220.701 278.987,221.042 279.135,221.491 280.119 C 222.232 281.746,224.904 283.177,229.438 284.377 C 239.791 287.115,243.462 287.413,254.000 286.364 L 262.200 285.549 265.339 286.474 L 268.479 287.400 270.178 290.800 C 271.113 292.670,272.729 296.360,273.770 299.000 C 275.956 304.546,277.066 306.788,279.412 310.400 C 280.341 311.830,281.953 314.350,282.993 316.000 C 284.034 317.650,285.219 319.364,285.626 319.809 C 286.451 320.708,289.362 328.908,289.738 331.390 C 289.871 332.265,290.530 334.100,291.204 335.468 C 292.574 338.253,292.504 344.468,291.085 345.886 C 290.150 346.821,284.362 346.884,277.000 346.041 C 270.279 345.270,269.059 345.403,267.800 347.044 C 267.580 347.331,266.050 348.227,264.400 349.034 C 262.750 349.842,260.831 351.000,260.136 351.607 C 259.441 352.215,258.316 353.041,257.636 353.442 C 256.956 353.844,256.400 354.408,256.400 354.696 C 256.400 354.984,255.830 355.334,255.132 355.474 C 254.391 355.622,253.187 356.427,252.232 357.414 C 251.335 358.342,249.255 359.933,247.610 360.951 C 245.966 361.968,244.886 362.803,245.210 362.806 C 245.723 362.811,245.722 362.863,245.200 363.200 C 244.715 363.514,244.772 363.589,245.500 363.594 C 245.995 363.597,246.407 363.645,246.415 363.700 C 246.423 363.755,246.533 364.520,246.659 365.400 C 246.786 366.280,247.023 367.090,247.188 367.200 C 247.352 367.310,247.438 367.715,247.379 368.100 C 247.319 368.485,247.435 368.800,247.635 368.800 C 247.836 368.800,247.979 368.935,247.953 369.100 C 247.677 370.847,247.990 371.126,250.757 371.593 C 253.904 372.123,256.772 371.578,256.836 370.437 C 256.855 370.087,256.923 368.900,256.987 367.800 C 257.051 366.700,257.153 363.865,257.213 361.500 C 257.304 357.875,257.422 357.199,257.961 357.194 C 258.466 357.189,258.488 357.117,258.063 356.848 C 257.288 356.356,259.595 355.969,260.480 356.443 C 260.904 356.670,261.826 356.659,262.884 356.415 C 275.273 353.557,278.768 358.826,278.260 379.600 C 277.945 392.538,278.284 393.494,282.232 390.778 C 284.323 389.339,284.528 388.860,285.680 382.700 C 285.917 381.435,286.246 380.400,286.412 380.400 C 286.578 380.400,286.826 379.950,286.964 379.400 C 287.247 378.274,288.974 378.032,291.074 378.825 C 291.980 379.167,292.102 379.152,291.700 378.745 C 291.060 378.099,291.061 377.600,291.702 377.600 C 292.064 377.600,292.194 376.737,292.169 374.500 C 292.099 368.249,293.092 358.112,293.870 357.134 C 294.104 356.840,294.410 355.964,294.550 355.186 C 294.947 352.974,295.869 351.932,297.342 352.028 C 298.034 352.074,298.960 351.951,299.400 351.755 C 301.746 350.713,310.540 352.062,314.529 354.075 C 314.930 354.278,315.920 354.776,316.729 355.182 C 320.544 357.096,321.891 356.399,322.608 352.140 C 322.751 351.293,323.026 350.060,323.219 349.400 C 323.730 347.656,323.971 338.649,323.556 336.803 C 323.361 335.936,322.747 332.025,322.191 328.113 C 321.237 321.393,320.719 318.404,319.361 311.785 C 318.308 306.654,318.416 301.812,319.609 300.613 L 320.619 299.600 324.983 301.439 L 329.348 303.278 333.571 301.229 C 339.514 298.344,339.973 297.338,338.565 290.289 C 338.051 287.717,338.017 286.440,338.371 282.920 C 339.482 271.882,338.959 269.200,335.697 269.200 C 333.505 269.200,332.641 270.072,332.955 271.970 C 333.085 272.756,333.193 273.996,333.196 274.724 C 333.198 275.503,333.364 275.946,333.600 275.800 C 333.837 275.653,334.000 276.118,334.000 276.944 C 334.000 277.709,334.106 278.611,334.236 278.950 C 334.520 279.690,331.923 282.510,330.887 282.586 C 330.502 282.615,329.947 282.786,329.654 282.967 C 329.291 283.191,328.405 282.612,326.870 281.148 C 325.632 279.966,324.552 278.968,324.471 278.928 C 324.390 278.889,324.610 277.593,324.962 276.049 C 325.313 274.505,325.600 272.694,325.600 272.024 C 325.600 270.812,329.913 268.052,330.876 268.647 C 331.054 268.757,331.200 268.662,331.200 268.436 C 331.200 268.210,331.443 268.118,331.739 268.232 C 332.157 268.392,332.290 267.809,332.330 265.639 C 332.379 263.023,332.487 262.701,333.994 260.720 C 336.905 256.893,337.609 254.147,338.390 243.589 C 338.893 236.789,338.486 234.566,336.754 234.641 C 331.042 234.887,329.357 235.282,325.000 237.394 C 317.688 240.938,314.998 241.705,309.164 241.905 L 304.129 242.077 301.745 239.870 C 299.284 237.592,296.653 232.668,296.111 229.326 C 295.404 224.970,298.935 219.710,305.000 216.085 C 306.540 215.164,308.313 213.983,308.939 213.459 L 310.078 212.508 309.235 209.435 C 308.772 207.746,307.790 204.796,307.055 202.882 C 304.468 196.148,304.476 196.393,306.696 191.694 L 308.637 187.588 307.344 183.694 C 306.633 181.552,305.627 177.755,305.108 175.256 L 304.166 170.713 300.083 168.529 C 295.347 165.997,295.644 165.974,291.114 169.219 C 287.343 171.921,286.779 172.040,285.207 170.468 C 282.395 167.656,282.291 160.259,284.830 143.527 C 286.629 131.673,285.255 120.947,281.317 116.090 C 278.813 113.002,265.567 107.432,261.256 107.654 L 260.200 107.709 261.200 107.878 M140.575 112.100 L 139.400 113.400 140.700 112.225 C 141.912 111.130,142.184 110.800,141.875 110.800 C 141.806 110.800,141.221 111.385,140.575 112.100 M124.575 120.500 L 123.400 121.800 124.700 120.625 C 125.912 119.530,126.184 119.200,125.875 119.200 C 125.806 119.200,125.221 119.785,124.575 120.500 M108.925 127.159 C 106.617 128.431,104.488 130.000,105.068 130.000 C 105.275 130.000,106.065 129.530,106.822 128.957 C 107.580 128.383,109.100 127.484,110.200 126.960 C 111.300 126.436,111.930 126.009,111.600 126.011 C 111.270 126.013,110.066 126.529,108.925 127.159 M98.400 133.690 C 95.673 136.158,92.824 141.357,93.712 142.246 C 93.800 142.333,94.210 141.289,94.623 139.924 C 95.214 137.972,95.877 136.905,97.733 134.922 C 100.328 132.147,100.542 131.752,98.400 133.690 M93.000 144.000 C 92.848 144.691,92.807 145.341,92.909 145.442 C 93.011 145.544,93.209 145.053,93.350 144.350 C 93.683 142.683,93.360 142.360,93.000 144.000 M236.857 206.700 C 236.091 211.676,236.080 212.187,236.671 215.378 C 237.446 219.556,238.032 220.619,239.893 221.222 C 240.722 221.490,242.424 222.222,243.675 222.848 L 245.950 223.986 247.561 222.392 L 249.171 220.798 248.358 218.902 C 247.064 215.884,246.081 214.530,244.793 213.997 C 243.894 213.625,243.280 212.837,242.342 210.850 C 241.178 208.386,238.136 204.062,237.536 204.019 C 237.391 204.009,237.085 205.215,236.857 206.700 M170.645 216.018 C 169.815 218.530,169.612 221.169,170.022 224.158 C 170.628 228.590,170.786 228.777,172.383 226.959 C 174.775 224.234,175.530 221.049,174.010 220.099 C 173.575 219.827,172.683 218.667,172.029 217.520 C 171.278 216.207,170.767 215.651,170.645 216.018 M130.267 229.109 C 130.527 229.275,130.831 230.851,130.953 232.663 C 131.074 234.454,131.200 236.073,131.234 236.260 C 131.504 237.773,130.066 238.690,128.464 238.026 C 127.412 237.590,127.400 237.543,127.427 233.672 C 127.461 228.912,128.169 227.775,130.267 229.109 M213.200 237.000 C 214.281 238.302,212.420 239.304,211.115 238.123 C 210.387 237.464,210.392 237.432,211.283 236.937 C 212.469 236.279,212.605 236.284,213.200 237.000 M158.800 244.896 C 161.977 247.368,156.723 250.349,152.836 248.280 C 151.826 247.743,150.144 246.985,149.097 246.596 C 146.773 245.733,146.905 245.489,151.174 242.745 L 154.147 240.834 155.774 242.321 C 156.668 243.138,158.030 244.297,158.800 244.896 M236.200 258.058 C 234.922 259.804,232.732 261.401,231.029 261.828 C 229.713 262.159,229.311 262.796,230.064 263.361 C 230.386 263.602,230.769 264.118,230.915 264.506 C 231.060 264.894,231.634 265.385,232.190 265.596 C 232.745 265.807,233.200 266.136,233.200 266.326 C 233.200 267.076,237.518 267.751,239.162 267.259 C 242.251 266.333,244.462 263.156,243.044 261.680 C 242.686 261.306,241.400 259.965,240.188 258.700 C 237.570 255.969,237.713 255.992,236.200 258.058 M299.514 277.225 C 301.432 277.679,303.732 278.234,304.626 278.457 C 305.813 278.753,306.713 279.397,307.952 280.836 C 308.887 281.921,310.620 283.428,311.804 284.186 C 314.777 286.087,315.065 286.696,315.346 291.656 C 315.610 296.314,315.503 296.599,313.344 297.031 C 312.252 297.250,312.080 297.113,311.040 295.202 C 309.781 292.889,308.420 291.900,305.210 290.964 C 302.893 290.288,300.602 288.301,298.992 285.570 C 298.548 284.817,297.547 283.900,296.768 283.533 C 295.371 282.874,292.400 279.946,292.400 279.228 C 292.400 278.807,295.213 276.400,295.706 276.400 C 295.883 276.400,297.597 276.771,299.514 277.225 M111.280 282.700 C 107.615 289.042,104.678 291.378,98.600 292.787 C 96.620 293.245,94.460 293.867,93.800 294.168 C 93.140 294.468,92.011 294.937,91.291 295.209 C 90.193 295.625,89.984 295.906,89.993 296.952 C 90.013 299.041,89.697 300.863,89.237 301.323 C 88.997 301.563,88.800 302.163,88.800 302.656 C 88.800 303.149,88.620 303.664,88.400 303.800 C 87.762 304.194,87.937 305.200,88.643 305.200 C 89.130 305.200,89.226 305.444,89.036 306.200 C 88.830 307.019,88.931 307.200,89.592 307.200 C 90.150 307.200,90.400 307.464,90.400 308.054 C 90.400 308.998,92.025 310.725,92.700 310.500 C 92.936 310.421,93.489 310.744,93.930 311.217 C 94.485 311.813,94.986 311.995,95.565 311.811 C 96.851 311.403,96.641 312.892,95.000 315.827 C 94.230 317.203,93.600 318.873,93.600 319.536 C 93.600 320.372,93.266 321.005,92.512 321.598 C 91.913 322.069,90.963 323.150,90.400 324.000 C 89.837 324.850,88.919 325.906,88.360 326.346 C 87.068 327.362,86.247 329.946,86.775 331.335 C 87.019 331.977,87.021 332.830,86.780 333.670 C 86.284 335.398,86.295 337.488,86.800 337.800 C 87.020 337.936,87.200 338.590,87.200 339.253 C 87.200 339.916,87.638 341.764,88.173 343.359 C 89.462 347.197,90.800 352.485,90.800 353.739 C 90.800 354.725,90.442 355.125,79.593 366.262 C 78.273 367.616,76.160 370.227,74.897 372.063 C 71.989 376.290,68.582 380.520,64.977 384.379 C 61.884 387.690,59.592 393.535,59.598 398.100 L 59.600 400.000 71.400 400.000 L 83.200 400.000 83.200 397.882 C 83.200 395.809,83.242 395.732,85.213 394.229 C 87.668 392.357,87.701 392.385,87.922 396.605 L 88.100 400.000 90.650 400.000 L 93.200 400.000 93.200 397.863 C 93.200 396.175,93.536 395.048,94.805 392.486 C 95.886 390.303,96.993 386.947,98.192 382.211 C 100.199 374.284,100.925 372.396,102.784 370.280 L 104.083 368.800 108.451 368.800 C 112.613 368.800,112.948 368.864,115.510 370.148 C 119.931 372.362,120.439 372.218,116.600 369.837 C 114.620 368.610,112.820 367.602,112.600 367.599 C 112.380 367.595,111.275 367.161,110.144 366.635 C 102.821 363.225,103.070 358.348,110.600 357.714 C 111.933 357.602,114.600 356.896,116.600 356.125 C 121.759 354.137,123.616 354.247,127.692 356.781 C 129.250 357.749,137.108 360.491,140.902 361.389 C 141.287 361.480,141.782 361.665,142.000 361.800 C 142.888 362.349,144.515 362.529,151.200 362.819 C 162.368 363.304,170.917 365.086,177.280 368.257 C 179.447 369.336,183.952 370.075,194.000 370.997 C 197.850 371.350,202.080 371.802,203.400 372.000 C 204.720 372.198,207.690 372.562,210.000 372.809 C 212.310 373.056,215.460 373.525,217.000 373.851 C 221.989 374.909,228.586 375.279,233.014 374.750 C 237.912 374.165,238.592 374.318,240.734 376.488 C 244.934 380.742,247.514 383.492,248.345 384.600 C 248.858 385.285,249.062 385.424,248.821 384.924 C 248.588 384.443,247.430 382.939,246.247 381.583 L 244.097 379.117 243.820 375.576 C 243.628 373.125,243.324 371.753,242.831 371.118 C 242.440 370.613,242.198 369.975,242.293 369.700 C 242.389 369.425,242.261 369.200,242.010 369.200 C 241.758 369.200,241.664 369.020,241.800 368.800 C 241.936 368.580,241.877 368.400,241.668 368.400 C 241.460 368.400,241.314 368.085,241.344 367.700 C 241.375 367.315,241.175 367.045,240.900 367.100 C 240.625 367.155,240.400 367.000,240.400 366.757 C 240.400 366.488,240.020 366.409,239.433 366.556 C 238.886 366.693,238.404 366.612,238.323 366.368 C 238.184 365.953,232.293 367.217,230.819 367.978 C 229.015 368.910,219.083 367.772,215.968 366.277 C 214.301 365.476,211.961 364.615,210.768 364.363 C 209.576 364.111,208.240 363.704,207.800 363.460 C 207.360 363.215,205.020 362.921,202.600 362.807 C 199.536 362.663,198.227 362.457,198.290 362.130 C 198.340 361.871,197.860 361.545,197.224 361.405 C 195.726 361.076,193.203 361.551,193.314 362.142 C 193.791 364.685,172.612 360.373,166.200 356.623 C 164.220 355.465,162.150 354.403,161.600 354.263 C 161.050 354.124,159.438 353.018,158.019 351.805 C 156.599 350.592,155.306 349.600,155.146 349.600 C 154.985 349.600,154.749 349.270,154.621 348.866 C 154.270 347.759,149.015 342.438,145.424 339.552 C 137.570 333.240,136.513 331.724,135.419 325.200 C 134.811 321.574,134.531 320.774,133.372 319.350 C 132.633 318.443,131.825 317.273,131.577 316.750 C 131.328 316.228,130.612 315.390,129.984 314.888 L 128.844 313.976 124.751 314.810 L 120.658 315.644 119.254 314.240 L 117.850 312.837 119.504 309.318 C 123.382 301.068,123.288 294.862,119.216 290.449 C 118.327 289.487,117.600 288.465,117.600 288.178 C 117.600 287.892,117.184 287.330,116.675 286.929 C 115.686 286.150,112.800 282.147,112.800 281.555 C 112.800 280.758,112.096 281.289,111.280 282.700 M296.632 291.965 C 297.249 292.698,298.387 293.356,299.706 293.742 C 305.640 295.477,305.290 295.293,306.292 297.200 C 307.473 299.446,309.286 301.340,311.496 302.635 L 313.200 303.634 313.172 308.317 C 313.132 314.931,312.369 316.025,307.239 316.821 L 304.365 317.267 302.204 315.421 C 301.015 314.405,299.113 312.949,297.976 312.184 C 296.840 311.419,295.530 310.300,295.066 309.697 C 294.602 309.094,293.238 307.558,292.035 306.284 C 288.935 303.002,287.196 294.920,288.971 292.047 C 289.123 291.801,290.092 291.587,291.124 291.572 C 292.156 291.556,293.360 291.389,293.800 291.200 C 295.139 290.624,295.611 290.752,296.632 291.965 M209.200 298.876 C 207.770 299.325,206.060 299.776,205.400 299.878 C 203.363 300.195,201.127 302.035,199.897 304.408 C 197.581 308.876,196.004 311.050,194.592 311.723 C 193.826 312.088,193.200 312.631,193.200 312.929 C 193.200 313.228,192.318 315.204,191.240 317.321 L 189.280 321.171 190.302 322.193 C 190.867 322.758,192.503 323.574,193.962 324.018 C 197.307 325.038,199.200 326.852,199.200 329.038 C 199.200 329.816,195.965 333.200,195.221 333.200 C 194.356 333.200,191.017 336.684,190.591 338.030 C 190.423 338.564,189.873 339.541,189.369 340.203 C 185.256 345.604,186.160 348.806,192.668 351.896 L 195.544 353.262 200.072 351.843 C 205.490 350.145,206.567 349.430,208.852 346.020 C 209.813 344.584,211.520 342.182,212.644 340.682 C 213.768 339.181,214.903 337.233,215.167 336.352 C 215.431 335.471,216.278 333.493,217.050 331.956 L 218.452 329.161 217.601 326.604 C 217.134 325.198,216.230 323.393,215.593 322.592 C 214.467 321.174,213.980 315.087,214.918 314.149 C 215.058 314.009,214.992 313.558,214.772 313.147 C 214.465 312.574,214.510 312.400,214.966 312.400 C 216.305 312.400,218.697 307.998,218.860 305.233 C 218.964 303.474,218.218 302.124,216.106 300.252 C 213.281 297.747,212.987 297.689,209.200 298.876 M115.798 347.591 C 115.944 348.256,116.192 348.800,116.348 348.800 C 116.635 348.800,118.147 353.995,117.921 354.202 C 116.179 355.800,109.587 355.745,109.856 354.135 C 109.887 353.951,110.007 352.990,110.124 352.000 C 110.455 349.183,111.256 346.265,111.904 345.516 C 112.795 344.485,115.423 345.885,115.798 347.591 M293.600 378.790 C 293.600 379.318,295.677 380.334,296.300 380.112 C 297.006 379.860,296.922 378.932,296.167 378.643 C 295.185 378.266,293.600 378.357,293.600 378.790 M301.730 384.440 C 299.582 385.062,298.848 386.815,299.237 390.400 C 299.417 392.050,299.457 394.885,299.327 396.700 L 299.090 400.000 310.945 400.000 L 322.800 400.000 322.797 397.900 C 322.794 395.083,320.054 391.465,316.600 389.716 C 315.940 389.382,314.950 388.708,314.400 388.218 C 313.519 387.434,304.302 383.942,303.360 384.036 C 303.162 384.056,302.429 384.238,301.730 384.440 M252.528 397.600 C 252.528 399.030,252.601 399.615,252.689 398.900 C 252.778 398.185,252.778 397.015,252.689 396.300 C 252.601 395.585,252.528 396.170,252.528 397.600 " stroke="none" fill="#8c6859" fill-rule="evenodd"></path></g></svg>