<?xml version="1.0" standalone="no"?>
<!DOCTYPE svg PUBLIC "-//W3C//DTD SVG 20010904//EN"
 "http://www.w3.org/TR/2001/REC-SVG-20010904/DTD/svg10.dtd">
<svg version="1.0" xmlns="http://www.w3.org/2000/svg"
 width="1471.000000pt" height="1471.000000pt" viewBox="0 0 1471.000000 1471.000000"
 preserveAspectRatio="xMidYMid meet">
<metadata>
Created by potrace 1.14, written by Peter Selinger 2001-2017
</metadata>
<g transform="translate(0.000000,1471.000000) scale(0.100000,-0.100000)"
fill="#000000" stroke="none">
<path d="M6975 14694 c-109 -12 -314 -42 -390 -58 -730 -155 -1361 -467 -1980
-980 -148 -123 -183 -155 -360 -331 -227 -226 -396 -420 -586 -675 -279 -373
-459 -666 -683 -1110 -386 -765 -669 -1646 -812 -2530 -8 -52 -17 -106 -19
-120 -12 -64 -51 -370 -60 -465 -3 -33 -8 -73 -10 -90 -2 -16 -6 -70 -10 -120
-4 -49 -8 -101 -11 -115 -25 -159 -25 -1341 1 -1500 2 -14 7 -61 10 -105 3
-44 7 -96 10 -115 2 -19 7 -62 10 -95 10 -102 25 -225 41 -335 8 -58 17 -121
20 -140 98 -674 316 -1462 584 -2105 259 -625 557 -1150 941 -1660 137 -183
141 -187 299 -369 764 -878 1731 -1453 2725 -1621 269 -45 385 -54 710 -50
154 2 294 5 310 8 17 3 59 8 95 12 334 36 748 144 1083 284 480 201 969 517
1385 895 69 62 308 300 378 376 356 388 709 892 984 1405 48 90 210 413 210
419 0 3 15 37 34 78 155 337 318 785 436 1203 55 193 150 591 174 725 2 14 14
75 25 135 20 104 30 169 66 410 17 121 41 322 50 425 4 41 8 86 10 100 2 14 7
72 10 130 4 58 10 161 15 230 8 131 5 1049 -3 1110 -3 19 -8 82 -12 140 -3 58
-8 123 -10 145 -3 22 -14 128 -25 235 -24 220 -21 197 -56 425 -180 1185 -586
2315 -1167 3250 -408 657 -904 1217 -1454 1639 -189 145 -367 266 -518 351
-404 228 -718 357 -1105 455 -155 39 -387 82 -510 95 -36 4 -78 9 -95 12 -74
12 -616 10 -740 -3z"/>
</g>
</svg>
